<svg id="exportSVG" visibility="visible" xmlns="http://www.w3.org/2000/svg" xmlns:xlink="http://www.w3.org/1999/xlink" version="1.1" data-info="draw.ninja" data-name="logo1" viewBox="0 0 120 120" width="120" height="120" style="position: fixed; top: 0px; left: 0px;"><defs id="defsExport"><filter id="filter0"><feGaussianBlur stdDeviation="0"></feGaussianBlur></filter><pattern id="patternImage" patternUnits="userSpaceOnUse" x="0" y="0" width="1" height="1" data-x="0" data-y="0" data-width="1" data-height="1" data-multx="1" data-multy="1" patternTransform="matrix(1,0,0,1,0,0)" data-transs="0" data-transf="0" data-source="patternImage" data-draw="1" fill="#00FF40" fill-opacity="1"></pattern><pattern id="pattern0" patternUnits="userSpaceOnUse" x="0" y="0" width="10" height="10" data-x="0" data-y="0" data-width="10" data-height="10" data-multx="1" data-multy="1" stroke="none" patternTransform="matrix(1,0,0,1,0,0)" data-transs="0" data-transf="0" data-source="Pattern 0" data-draw="1" fill="#00FF40" fill-opacity="1"><path transform="matrix(1,0,0,1,0,0)" d="M0 0 L5 0 L5 5 L0 5 L0 0 Z"></path></pattern><pattern id="pattern1" patternUnits="userSpaceOnUse" x="0" y="0" width="10" height="10" data-x="0" data-y="0" data-width="10" data-height="10" data-multx="1" data-multy="1" stroke="none" patternTransform="matrix(1,0,0,1,0,0)" data-transs="0" data-transf="0" data-source="Pattern 1" data-draw="1" fill="#00FF40" fill-opacity="1"><path transform="matrix(1,0,0,1,0,0)" d="M0 5 L5 0 L10 5 L5 10 L0 5 Z"></path></pattern><pattern id="pattern2" patternUnits="userSpaceOnUse" x="0" y="0" width="10" height="10" data-x="0" data-y="0" data-width="10" data-height="10" data-multx="1" data-multy="1" stroke="none" patternTransform="matrix(1,0,0,1,0,0)" data-transs="0" data-transf="0" data-source="Pattern 2" data-draw="1" fill="#00FF40" fill-opacity="1"><path transform="matrix(1,0,0,1,0,0)" d="M0 9 L5 1 L10 9 L0 9 Z"></path></pattern><pattern id="pattern3" patternUnits="userSpaceOnUse" x="0" y="0" width="10" height="10" data-x="0" data-y="0" data-width="10" data-height="10" data-multx="1" data-multy="1" stroke="none" patternTransform="matrix(1,0,0,1,0,0)" data-transs="0" data-transf="0" data-source="Pattern 3" data-draw="1" fill="#00FF40" fill-opacity="1"><path transform="matrix(1,0,0,1,0,0)" d="M0 5 C0 2.25 2.25 0 5 0 C7.75 0 10 2.25 10 5 C10 7.75 7.75 10 5 10 C2.25 10 0 7.75 0 5 Z"></path></pattern><pattern id="pattern4" patternUnits="userSpaceOnUse" x="0" y="0" width="10" height="10" data-x="0" data-y="0" data-width="10" data-height="10" data-multx="1" data-multy="1" stroke="none" patternTransform="matrix(1,0,0,1,0,0)" data-transs="0" data-transf="0" data-source="Pattern 4" data-draw="1" fill="#00FF40" fill-opacity="1"><path transform="matrix(1,0,0,1,0,0)" d="M0 5 L4 4 L5 0 L6 4 L10 5 L6 6 L5 10 L4 6 L0 5 Z"></path></pattern><pattern id="pattern5" patternUnits="userSpaceOnUse" x="0" y="0" width="10" height="10" data-x="0" data-y="0" data-width="10" data-height="10" data-multx="1" data-multy="1" stroke="none" patternTransform="matrix(1,0,0,1,0,0)" data-transs="0" data-transf="0" data-source="Pattern 5" data-draw="1" fill="#00FF40" fill-opacity="1"><path transform="matrix(1,0,0,1,0,0)" d="M5 10 C-5 2.75 3 -1.75 5 1 C7 -1.75 15 2.75 5 10 Z"></path></pattern><pattern id="pattern6" patternUnits="userSpaceOnUse" x="0" y="0" width="10" height="10" data-x="0" data-y="0" data-width="10" data-height="10" data-multx="1" data-multy="1" stroke="none" patternTransform="matrix(1,0,0,1,0,0)" data-transs="0" data-transf="0" data-source="Pattern 6" data-draw="1" fill="#00FF40" fill-opacity="1"><path transform="matrix(1,0,0,1,0,0)" d="M3 0 L7 0 L7 10 L3 10 L3 0 Z"></path></pattern><pattern id="pattern7" patternUnits="userSpaceOnUse" x="0" y="0" width="10" height="10" data-x="0" data-y="0" data-width="10" data-height="10" data-multx="1" data-multy="1" stroke="none" patternTransform="matrix(1,0,0,1,0,0)" data-transs="0" data-transf="0" data-source="Pattern 7" data-draw="1" fill="#00FF40" fill-opacity="1"><path transform="matrix(1,0,0,1,0,0)" d="M10 3 L10 7 L0 7 L0 3 L10 3 Z"></path></pattern><pattern id="pattern8" patternUnits="userSpaceOnUse" x="0" y="0" width="10" height="10" data-x="0" data-y="0" data-width="10" data-height="10" data-multx="1" data-multy="1" stroke="none" patternTransform="matrix(1,0,0,1,0,0)" data-transs="0" data-transf="0" data-source="Pattern 8" data-draw="1" fill="#00FF40" fill-opacity="1"><path transform="matrix(1,0,0,1,0,0)" d="M0 10 L3 3 L10 0 L7 7 L0 10 Z"></path></pattern><pattern id="pattern9" patternUnits="userSpaceOnUse" x="0" y="0" width="10" height="10" data-x="0" data-y="0" data-width="10" data-height="10" data-multx="1" data-multy="1" stroke="none" patternTransform="matrix(1,0,0,1,0,0)" data-transs="0" data-transf="0" data-source="Pattern 9" data-draw="1" fill="#00FF40" fill-opacity="1"><path transform="matrix(1,0,0,1,0,0)" d="M0 4 L10 4 L10 6 L0 6 L0 4 Z M4 10 L4 0 L6 0 L6 10 L4 10 Z"></path></pattern><linearGradient id="linearSystem" gradientUnits="objectBoundingBox" x1="0%" y1="50%" x2="100%" y2="50%" spreadMethod="pad"><stop offset="50%" stop-color="#D0D0D0" stop-opacity="1"></stop><stop offset="100%" stop-color="transparent" stop-opacity="1"></stop></linearGradient><linearGradient id="linearSystem1" gradientUnits="objectBoundingBox" x1="0%" y1="50%" x2="100%" y2="50%" spreadMethod="pad"><stop offset="30%" stop-color="#D0D0D0" stop-opacity="1"></stop><stop offset="100%" stop-color="transparent" stop-opacity="1"></stop></linearGradient><linearGradient id="linearSystem2" gradientUnits="objectBoundingBox" x1="0%" y1="50%" x2="50%" y2="50%" spreadMethod="repeat"><stop offset="30%" stop-color="#D0D0D0" stop-opacity="1"></stop><stop offset="100%" stop-color="transparent" stop-opacity="1"></stop></linearGradient><linearGradient id="linearSystem3" gradientUnits="objectBoundingBox" x1="0%" y1="50%" x2="50%" y2="50%" spreadMethod="reflect"><stop offset="30%" stop-color="#D0D0D0" stop-opacity="1"></stop><stop offset="100%" stop-color="transparent" stop-opacity="1"></stop></linearGradient><radialGradient id="radialSystem" gradientUnits="objectBoundingBox" r="0.5" cx="0.5" fx="0.5" cy="0.5" fy="0.5" spreadMethod="pad"><stop offset="50%" stop-color="#D0D0D0" stop-opacity="1"></stop><stop offset="100%" stop-color="transparent" stop-opacity="1"></stop></radialGradient><pattern id="patternSystem" patternUnits="userSpaceOnUse" x="0" y="0" width="6" height="8"><path stroke="#D0D0D0" stroke-width="5" fill="none" d="M0 0 L0 10"></path></pattern><linearGradient id="linear0" gradientUnits="objectBoundingBox" x1="0%" y1="50%" x2="100%" y2="50%" spreadMethod="pad"><stop offset="0%" stop-color="#FF8000" stop-opacity="1"></stop><stop offset="100%" stop-color="#FFFF00" stop-opacity="1"></stop></linearGradient><linearGradient id="linear1" gradientUnits="objectBoundingBox" x1="0%" y1="50%" x2="100%" y2="50%" spreadMethod="pad"><stop offset="0%" stop-color="#FFFF00" stop-opacity="1"></stop><stop offset="100%" stop-color="#FF8000" stop-opacity="1"></stop></linearGradient><linearGradient id="linearImport" gradientUnits="objectBoundingBox" x1="0%" y1="50%" x2="100%" y2="50%" spreadMethod="pad"><stop offset="0%" stop-color="#FFFFFF" stop-opacity="0.1"></stop><stop offset="100%" stop-color="#000000" stop-opacity="0.1"></stop></linearGradient><radialGradient id="radial0" gradientUnits="objectBoundingBox" r="0.5" cx="0.5" fx="0.5" cy="0.5" fy="0.5" spreadMethod="pad"><stop offset="0%" stop-color="#FF8000" stop-opacity="1"></stop><stop offset="100%" stop-color="#FFFF00" stop-opacity="1"></stop></radialGradient><radialGradient id="radial1" gradientUnits="objectBoundingBox" r="0.5" cx="0.5" fx="0.5" cy="0.5" fy="0.5" spreadMethod="pad"><stop offset="0%" stop-color="#FFFF00" stop-opacity="1"></stop><stop offset="100%" stop-color="#FF8000" stop-opacity="1"></stop></radialGradient><radialGradient id="radialImport" gradientUnits="objectBoundingBox" r="0.5" cx="0.5" fx="0.5" cy="0.5" fy="0.5" spreadMethod="pad"><stop offset="0%" stop-color="#FFFFFF" stop-opacity="0.1"></stop><stop offset="100%" stop-color="#000000" stop-opacity="0.1"></stop></radialGradient><radialGradient id="radial2" gradientUnits="objectBoundingBox" r="0.5" cx="0.5" fx="0.5" cy="0.5" fy="0.5" spreadMethod="pad"><stop offset="0%" stop-color="#FF8000" stop-opacity="1"></stop><stop offset="100%" stop-color="#FFFF00" stop-opacity="1"></stop></radialGradient><radialGradient id="radial3" gradientUnits="objectBoundingBox" r="0.5" cx="0.225" fx="0.225" cy="0.5416666666666667" fy="0.5416666666666667" spreadMethod="pad"><stop offset="0%" stop-color="#80FFFF" stop-opacity="1"></stop><stop offset="100%" stop-color="#0080FF" stop-opacity="1"></stop></radialGradient><filter id="filter1"><feGaussianBlur stdDeviation="0"></feGaussianBlur></filter><filter id="filter2"><feGaussianBlur stdDeviation="0"></feGaussianBlur></filter><filter id="filter3"><feGaussianBlur stdDeviation="0"></feGaussianBlur></filter><filter id="filter4"><feGaussianBlur stdDeviation="0"></feGaussianBlur></filter><filter id="filter5"><feGaussianBlur stdDeviation="0"></feGaussianBlur></filter><filter id="filter6"><feGaussianBlur stdDeviation="0"></feGaussianBlur></filter><filter id="filter7"><feGaussianBlur stdDeviation="0"></feGaussianBlur></filter><filter id="filter8"><feGaussianBlur stdDeviation="0"></feGaussianBlur></filter><filter id="filter9"><feGaussianBlur stdDeviation="0"></feGaussianBlur></filter><filter id="filter10"><feGaussianBlur stdDeviation="0"></feGaussianBlur></filter><filter id="filter11"><feGaussianBlur stdDeviation="0"></feGaussianBlur></filter><radialGradient id="radial4" gradientUnits="objectBoundingBox" r="0.5" cx="0.3916666666666667" fx="0.3916666666666667" cy="0.5166666666666667" fy="0.5166666666666667" spreadMethod="pad"><stop offset="0%" stop-color="#FFFFFF" stop-opacity="1"></stop><stop offset="100%" stop-color="#999999" stop-opacity="1"></stop></radialGradient><radialGradient id="radial5" gradientUnits="objectBoundingBox" r="0.5" cx="0.55" fx="0.55" cy="0.5583333333333333" fy="0.5583333333333333" spreadMethod="pad"><stop offset="0%" stop-color="#FFFFFF" stop-opacity="1"></stop><stop offset="100%" stop-color="#999999" stop-opacity="1"></stop></radialGradient><linearGradient id="linear6" gradientUnits="objectBoundingBox" x1="0%" y1="50%" x2="100%" y2="50%" spreadMethod="pad"><stop offset="0%" stop-color="#FFFF00" stop-opacity="1"></stop><stop offset="100%" stop-color="#FF8000" stop-opacity="1"></stop></linearGradient><radialGradient id="radial7" gradientUnits="objectBoundingBox" r="0.5" cx="0.4" fx="0.4" cy="0.45" fy="0.45" spreadMethod="pad"><stop offset="0%" stop-color="#000000" stop-opacity="1"></stop><stop offset="100%" stop-color="#999999" stop-opacity="1"></stop></radialGradient><linearGradient id="linear8" gradientUnits="objectBoundingBox" x1="0%" y1="50%" x2="100%" y2="50%" spreadMethod="pad"><stop offset="0%" stop-color="#E6E6E6" stop-opacity="1"></stop><stop offset="100%" stop-color="#B3B3B3" stop-opacity="1"></stop></linearGradient><radialGradient id="radial9" gradientUnits="objectBoundingBox" r="0.5" cx="0.5" fx="0.5" cy="0.5" fy="0.5" spreadMethod="pad"><stop offset="0%" stop-color="#B3B3B3" stop-opacity="1"></stop><stop offset="100%" stop-color="#FFFFFF" stop-opacity="1"></stop></radialGradient><radialGradient id="radial10" gradientUnits="objectBoundingBox" r="0.5" cx="0.5333333333333333" fx="0.5333333333333333" cy="0.5583333333333333" fy="0.5583333333333333" spreadMethod="pad"><stop offset="0%" stop-color="#FFFFFF" stop-opacity="1"></stop><stop offset="100%" stop-color="#B3B3B3" stop-opacity="1"></stop></radialGradient></defs><rect id="pageExport" x="0" y="0" width="120" height="120" fill="none" fill-opacity="0" stroke="none" stroke-width="0"></rect><g id="objectsExport" visibility="visible"><path id="path1" visibility="visible" stroke="#000000" stroke-width="5" stroke-opacity="1" stroke-linecap="round" stroke-linejoin="round" stroke-dasharray="none" marker-start="none" marker-end="none" fill="#CCCCCC" fill-rule="evenodd" fill-opacity="1" data-name="curve" data-title="curve" deg="0" data-sw="5" data-grad="0" data-group="0" data-edit="1" filter="url(#filter1)" d="M6.952 12.166 L114.857 12.166 L114.857 106.214 L6.952 106.214 L6.952 12.166 Z " data-centerx="61.9" data-centery="63.2"></path><path id="path9" visibility="visible" stroke="#FFFF00" stroke-width="2" stroke-opacity="1" stroke-linecap="round" stroke-linejoin="round" stroke-dasharray="none" marker-start="none" marker-end="none" fill="#FFFF00" fill-rule="evenodd" fill-opacity="1" data-name="curve" data-title="curve" deg="0" data-sw="2" data-grad="0" data-group="0" data-edit="1" filter="url(#filter2)" d="M43.419 44.926 C43.419 41.799 46.027 39.238 49.218 39.238 C52.407 39.238 55.018 41.799 55.018 44.926 C55.018 48.054 52.407 50.614 49.218 50.614 C46.027 50.614 43.419 48.054 43.419 44.926 Z " data-centerx="49.215" data-centery="44.933"></path><path id="path12" visibility="visible" stroke="#FFFF00" stroke-width="2" stroke-opacity="1" stroke-linecap="round" stroke-linejoin="round" stroke-dasharray="none" marker-start="none" marker-end="none" fill="#FFFF00" fill-rule="evenodd" fill-opacity="1" data-name="curve" data-title="curve" deg="0" data-sw="2" data-grad="0" data-group="0" data-edit="1" filter="url(#filter3)" d="M43.419 69.81 C43.419 66.682 46.027 64.122 49.218 64.122 C52.407 64.122 55.018 66.682 55.018 69.81 C55.018 72.938 52.407 75.497 49.218 75.497 C46.027 75.497 43.419 72.938 43.419 69.81 Z " data-centerx="49.212" data-centery="69.82"></path><path id="path13" visibility="visible" stroke="#FFFF00" stroke-width="2" stroke-opacity="1" stroke-linecap="round" stroke-linejoin="round" stroke-dasharray="none" marker-start="none" marker-end="none" fill="#FFFF00" fill-rule="evenodd" fill-opacity="1" data-name="curve" data-title="curve" deg="0" data-sw="2" data-grad="0" data-group="0" data-edit="1" filter="url(#filter4)" d="M43.419 94.694 C43.419 91.566 46.027 89.005 49.218 89.005 C52.407 89.005 55.018 91.566 55.018 94.694 C55.018 97.822 52.407 100.381 49.218 100.381 C46.027 100.381 43.419 97.822 43.419 94.694 Z " data-centerx="49.212" data-centery="94.704"></path><path id="path14" visibility="visible" stroke="#FFFFFF" stroke-width="2" stroke-opacity="1" stroke-linecap="round" stroke-linejoin="round" stroke-dasharray="none" marker-start="none" marker-end="none" fill="#FFFFFF" fill-rule="evenodd" fill-opacity="1" data-name="curve" data-title="curve" deg="0" data-sw="2" data-grad="0" data-group="0" data-edit="1" filter="url(#filter5)" d="M18.047 44.926 C18.047 41.799 20.655 39.238 23.846 39.238 C27.035 39.238 29.646 41.799 29.646 44.926 C29.646 48.054 27.035 50.614 23.846 50.614 C20.655 50.614 18.047 48.054 18.047 44.926 Z " data-centerx="23.843" data-centery="44.933"></path><path id="path15" visibility="visible" stroke="#ffba00" stroke-width="2" stroke-opacity="1" stroke-linecap="round" stroke-linejoin="round" stroke-dasharray="none" marker-start="none" marker-end="none" fill="#ffba00" fill-rule="evenodd" fill-opacity="1" data-name="curve" data-title="curve" deg="0" data-sw="2" data-grad="0" data-group="0" data-edit="1" filter="url(#filter6)" d="M94.163 44.926 C94.163 41.799 96.771 39.238 99.961 39.238 C103.151 39.238 105.761 41.799 105.761 44.926 C105.761 48.054 103.151 50.614 99.961 50.614 C96.771 50.614 94.163 48.054 94.163 44.926 Z " data-centerx="99.959" data-centery="44.933"></path><path id="path18" visibility="visible" stroke="#FFFFFF" stroke-width="2" stroke-opacity="1" stroke-linecap="round" stroke-linejoin="round" stroke-dasharray="none" marker-start="none" marker-end="none" fill="#FFFFFF" fill-rule="evenodd" fill-opacity="1" data-name="curve" data-title="curve" deg="0" data-sw="2" data-grad="0" data-group="0" data-edit="1" filter="url(#filter7)" d="M18.047 94.338 C18.047 91.21 20.655 88.65 23.846 88.65 C27.035 88.65 29.646 91.21 29.646 94.338 C29.646 97.466 27.035 100.025 23.846 100.025 C20.655 100.025 18.047 97.466 18.047 94.338 Z " data-centerx="23.843" data-centery="94.344"></path><path id="path19" visibility="visible" stroke="#FFFFFF" stroke-width="2" stroke-opacity="1" stroke-linecap="round" stroke-linejoin="round" stroke-dasharray="none" marker-start="none" marker-end="none" fill="#FFFFFF" fill-rule="evenodd" fill-opacity="1" data-name="curve" data-title="curve" deg="0" data-sw="2" data-grad="0" data-group="0" data-edit="1" filter="url(#filter8)" d="M18.047 69.81 C18.047 66.682 20.655 64.122 23.846 64.122 C27.035 64.122 29.646 66.682 29.646 69.81 C29.646 72.938 27.035 75.497 23.846 75.497 C20.655 75.497 18.047 72.938 18.047 69.81 Z " data-centerx="23.843" data-centery="69.816"></path><path id="path20" visibility="visible" stroke="#ffb46a" stroke-width="2" stroke-opacity="1" stroke-linecap="round" stroke-linejoin="round" stroke-dasharray="none" marker-start="none" marker-end="none" fill="#ffb46a" fill-rule="evenodd" fill-opacity="1" data-name="curve" data-title="curve" deg="0" data-sw="2" data-grad="0" data-group="0" data-edit="1" filter="url(#filter9)" d="M68.791 44.926 C68.791 41.799 71.399 39.238 74.59 39.238 C77.779 39.238 80.39 41.799 80.39 44.926 C80.39 48.054 77.779 50.614 74.59 50.614 C71.399 50.614 68.791 48.054 68.791 44.926 Z " data-centerx="74.587" data-centery="44.933"></path><path id="path21" visibility="visible" stroke="#ffb46a" stroke-width="2" stroke-opacity="1" stroke-linecap="round" stroke-linejoin="round" stroke-dasharray="none" marker-start="none" marker-end="none" fill="#ffb46a" fill-rule="evenodd" fill-opacity="1" data-name="curve" data-title="curve" deg="0" data-sw="2" data-grad="0" data-group="0" data-edit="1" filter="url(#filter10)" d="M68.791 69.81 C68.791 66.682 71.399 64.122 74.59 64.122 C77.779 64.122 80.39 66.682 80.39 69.81 C80.39 72.938 77.779 75.497 74.59 75.497 C71.399 75.497 68.791 72.938 68.791 69.81 Z " data-centerx="74.587" data-centery="69.816"></path><path id="path23" visibility="visible" stroke="#666666" stroke-width="0" stroke-opacity="1" stroke-linecap="round" stroke-linejoin="round" stroke-dasharray="none" marker-start="none" marker-end="none" fill="#808080" fill-rule="evenodd" fill-opacity="1" data-name="curve" data-title="curve" deg="0" data-sw="0" data-grad="0" data-group="0" data-edit="1" filter="url(#filter11)" d="M8.952 14.119 L112.808 14.119 L112.808 28.88 L8.952 28.88 L8.952 14.119 Z " data-centerx="19.075" data-centery="19.627"></path></g><g id="settings" visibility="hidden" data-dn0="primalDraw" data-dn1="#FAFAFA" data-dn2="#D2D2D2" data-dn3="18" data-dn4="#ffca82" data-dn5="#B3B3B3" data-dn6="1" data-dn7="1" data-dn8="2" data-dn9="round" data-dn10="round" data-dn11="none" data-dn12="none" data-dn13="none" data-dn14="evenodd" data-dn15="10" data-dn16="1" data-dn17="120" data-dn18="120" data-dn19="10" data-dn20="0" data-dn21="1" data-dn22="1" data-dn23="29" data-dn24="path1,path9,path12,path13,path14,path15,path18,path19,path20,path21,path23" data-dn25="11" data-dn26="url(#linear0)" data-dn27="url(#linear1)" data-dn28="url(#radial0)" data-dn29="url(#radial1)" data-dn30="#FF8000" data-dn31="#FFFF00" data-dn32="#000000" data-dn33="1" data-dn34="12" data-dn35="21" data-dn36="" data-dn37="0" data-dn38="122"></g></svg>