<svg id="exportSVG" visibility="visible" xmlns="http://www.w3.org/2000/svg" xmlns:xlink="http://www.w3.org/1999/xlink" version="1.1" data-info="draw.ninja" data-name="favicon3" viewBox="0 0 120 120" width="120" height="120" style="position: fixed; top: 0px; left: 0px;"><defs id="defsExport"><filter id="filter0"><feGaussianBlur stdDeviation="0"></feGaussianBlur></filter><pattern id="patternImage" patternUnits="userSpaceOnUse" x="0" y="0" width="1" height="1" data-x="0" data-y="0" data-width="1" data-height="1" data-multx="1" data-multy="1" patternTransform="matrix(1,0,0,1,0,0)" data-transs="0" data-transf="0" data-source="patternImage" data-draw="1" fill="#B3B3B3" fill-opacity="1"></pattern><pattern id="pattern0" patternUnits="userSpaceOnUse" x="0" y="0" width="10" height="10" data-x="0" data-y="0" data-width="10" data-height="10" data-multx="1" data-multy="1" stroke="none" patternTransform="matrix(1,0,0,1,0,0)" data-transs="0" data-transf="0" data-source="Pattern 0" data-draw="1" fill="#B3B3B3" fill-opacity="1"><path transform="matrix(1,0,0,1,0,0)" d="M0 0 L5 0 L5 5 L0 5 L0 0 Z"></path></pattern><pattern id="pattern1" patternUnits="userSpaceOnUse" x="0" y="0" width="10" height="10" data-x="0" data-y="0" data-width="10" data-height="10" data-multx="1" data-multy="1" stroke="none" patternTransform="matrix(1,0,0,1,0,0)" data-transs="0" data-transf="0" data-source="Pattern 1" data-draw="1" fill="#B3B3B3" fill-opacity="1"><path transform="matrix(1,0,0,1,0,0)" d="M0 5 L5 0 L10 5 L5 10 L0 5 Z"></path></pattern><pattern id="pattern2" patternUnits="userSpaceOnUse" x="0" y="0" width="10" height="10" data-x="0" data-y="0" data-width="10" data-height="10" data-multx="1" data-multy="1" stroke="none" patternTransform="matrix(1,0,0,1,0,0)" data-transs="0" data-transf="0" data-source="Pattern 2" data-draw="1" fill="#B3B3B3" fill-opacity="1"><path transform="matrix(1,0,0,1,0,0)" d="M0 9 L5 1 L10 9 L0 9 Z"></path></pattern><pattern id="pattern3" patternUnits="userSpaceOnUse" x="0" y="0" width="10" height="10" data-x="0" data-y="0" data-width="10" data-height="10" data-multx="1" data-multy="1" stroke="none" patternTransform="matrix(1,0,0,1,0,0)" data-transs="0" data-transf="0" data-source="Pattern 3" data-draw="1" fill="#B3B3B3" fill-opacity="1"><path transform="matrix(1,0,0,1,0,0)" d="M0 5 C0 2.25 2.25 0 5 0 C7.75 0 10 2.25 10 5 C10 7.75 7.75 10 5 10 C2.25 10 0 7.75 0 5 Z"></path></pattern><pattern id="pattern4" patternUnits="userSpaceOnUse" x="0" y="0" width="10" height="10" data-x="0" data-y="0" data-width="10" data-height="10" data-multx="1" data-multy="1" stroke="none" patternTransform="matrix(1,0,0,1,0,0)" data-transs="0" data-transf="0" data-source="Pattern 4" data-draw="1" fill="#B3B3B3" fill-opacity="1"><path transform="matrix(1,0,0,1,0,0)" d="M0 5 L4 4 L5 0 L6 4 L10 5 L6 6 L5 10 L4 6 L0 5 Z"></path></pattern><pattern id="pattern5" patternUnits="userSpaceOnUse" x="0" y="0" width="10" height="10" data-x="0" data-y="0" data-width="10" data-height="10" data-multx="1" data-multy="1" stroke="none" patternTransform="matrix(1,0,0,1,0,0)" data-transs="0" data-transf="0" data-source="Pattern 5" data-draw="1" fill="#B3B3B3" fill-opacity="1"><path transform="matrix(1,0,0,1,0,0)" d="M5 10 C-5 2.75 3 -1.75 5 1 C7 -1.75 15 2.75 5 10 Z"></path></pattern><pattern id="pattern6" patternUnits="userSpaceOnUse" x="0" y="0" width="10" height="10" data-x="0" data-y="0" data-width="10" data-height="10" data-multx="1" data-multy="1" stroke="none" patternTransform="matrix(1,0,0,1,0,0)" data-transs="0" data-transf="0" data-source="Pattern 6" data-draw="1" fill="#B3B3B3" fill-opacity="1"><path transform="matrix(1,0,0,1,0,0)" d="M3 0 L7 0 L7 10 L3 10 L3 0 Z"></path></pattern><pattern id="pattern7" patternUnits="userSpaceOnUse" x="0" y="0" width="10" height="10" data-x="0" data-y="0" data-width="10" data-height="10" data-multx="1" data-multy="1" stroke="none" patternTransform="matrix(1,0,0,1,0,0)" data-transs="0" data-transf="0" data-source="Pattern 7" data-draw="1" fill="#B3B3B3" fill-opacity="1"><path transform="matrix(1,0,0,1,0,0)" d="M10 3 L10 7 L0 7 L0 3 L10 3 Z"></path></pattern><pattern id="pattern8" patternUnits="userSpaceOnUse" x="0" y="0" width="10" height="10" data-x="0" data-y="0" data-width="10" data-height="10" data-multx="1" data-multy="1" stroke="none" patternTransform="matrix(1,0,0,1,0,0)" data-transs="0" data-transf="0" data-source="Pattern 8" data-draw="1" fill="#B3B3B3" fill-opacity="1"><path transform="matrix(1,0,0,1,0,0)" d="M0 10 L3 3 L10 0 L7 7 L0 10 Z"></path></pattern><pattern id="pattern9" patternUnits="userSpaceOnUse" x="0" y="0" width="10" height="10" data-x="0" data-y="0" data-width="10" data-height="10" data-multx="1" data-multy="1" stroke="none" patternTransform="matrix(1,0,0,1,0,0)" data-transs="0" data-transf="0" data-source="Pattern 9" data-draw="1" fill="#B3B3B3" fill-opacity="1"><path transform="matrix(1,0,0,1,0,0)" d="M0 4 L10 4 L10 6 L0 6 L0 4 Z M4 10 L4 0 L6 0 L6 10 L4 10 Z"></path></pattern><linearGradient id="linearSystem" gradientUnits="objectBoundingBox" x1="0%" y1="50%" x2="100%" y2="50%" spreadMethod="pad"><stop offset="50%" stop-color="#D0D0D0" stop-opacity="1"></stop><stop offset="100%" stop-color="transparent" stop-opacity="1"></stop></linearGradient><linearGradient id="linearSystem1" gradientUnits="objectBoundingBox" x1="0%" y1="50%" x2="100%" y2="50%" spreadMethod="pad"><stop offset="30%" stop-color="#D0D0D0" stop-opacity="1"></stop><stop offset="100%" stop-color="transparent" stop-opacity="1"></stop></linearGradient><linearGradient id="linearSystem2" gradientUnits="objectBoundingBox" x1="0%" y1="50%" x2="50%" y2="50%" spreadMethod="repeat"><stop offset="30%" stop-color="#D0D0D0" stop-opacity="1"></stop><stop offset="100%" stop-color="transparent" stop-opacity="1"></stop></linearGradient><linearGradient id="linearSystem3" gradientUnits="objectBoundingBox" x1="0%" y1="50%" x2="50%" y2="50%" spreadMethod="reflect"><stop offset="30%" stop-color="#D0D0D0" stop-opacity="1"></stop><stop offset="100%" stop-color="transparent" stop-opacity="1"></stop></linearGradient><radialGradient id="radialSystem" gradientUnits="objectBoundingBox" r="0.5" cx="0.5" fx="0.5" cy="0.5" fy="0.5" spreadMethod="pad"><stop offset="50%" stop-color="#D0D0D0" stop-opacity="1"></stop><stop offset="100%" stop-color="transparent" stop-opacity="1"></stop></radialGradient><pattern id="patternSystem" patternUnits="userSpaceOnUse" x="0" y="0" width="6" height="8"><path stroke="#D0D0D0" stroke-width="5" fill="none" d="M0 0 L0 10"></path></pattern><linearGradient id="linear0" gradientUnits="objectBoundingBox" x1="0%" y1="50%" x2="100%" y2="50%" spreadMethod="pad"><stop offset="0%" stop-color="#FF8000" stop-opacity="1"></stop><stop offset="100%" stop-color="#FFFF00" stop-opacity="1"></stop></linearGradient><linearGradient id="linear1" gradientUnits="objectBoundingBox" x1="0%" y1="50%" x2="100%" y2="50%" spreadMethod="pad"><stop offset="0%" stop-color="#FFFF00" stop-opacity="1"></stop><stop offset="100%" stop-color="#FF8000" stop-opacity="1"></stop></linearGradient><linearGradient id="linearImport" gradientUnits="objectBoundingBox" x1="0%" y1="50%" x2="100%" y2="50%" spreadMethod="pad"><stop offset="0%" stop-color="#FFFFFF" stop-opacity="0.1"></stop><stop offset="100%" stop-color="#000000" stop-opacity="0.1"></stop></linearGradient><radialGradient id="radial0" gradientUnits="objectBoundingBox" r="0.5" cx="0.5" fx="0.5" cy="0.5" fy="0.5" spreadMethod="pad"><stop offset="0%" stop-color="#FF8000" stop-opacity="1"></stop><stop offset="100%" stop-color="#FFFF00" stop-opacity="1"></stop></radialGradient><radialGradient id="radial1" gradientUnits="objectBoundingBox" r="0.5" cx="0.5" fx="0.5" cy="0.5" fy="0.5" spreadMethod="pad"><stop offset="0%" stop-color="#FFFF00" stop-opacity="1"></stop><stop offset="100%" stop-color="#FF8000" stop-opacity="1"></stop></radialGradient><radialGradient id="radialImport" gradientUnits="objectBoundingBox" r="0.5" cx="0.5" fx="0.5" cy="0.5" fy="0.5" spreadMethod="pad"><stop offset="0%" stop-color="#FFFFFF" stop-opacity="0.1"></stop><stop offset="100%" stop-color="#000000" stop-opacity="0.1"></stop></radialGradient><linearGradient id="linear2" gradientUnits="objectBoundingBox" x1="0.03%" y1="51.59%" x2="100%" y2="50%" spreadMethod="pad"><stop offset="0%" stop-color="#CCCCCC" stop-opacity="1"></stop><stop offset="100%" stop-color="#999999" stop-opacity="1"></stop></linearGradient><linearGradient id="linear3" gradientUnits="objectBoundingBox" x1="19.17%" y1="45%" x2="81.67%" y2="49.17%" spreadMethod="pad"><stop offset="0%" stop-color="#333333" stop-opacity="1"></stop><stop offset="100%" stop-color="#E6E6E6" stop-opacity="1"></stop></linearGradient></defs><rect id="pageExport" x="0" y="0" width="120" height="120" fill="none" fill-opacity="0" stroke="none" stroke-width="0"></rect><g id="objectsExport" visibility="visible"><g id="group235" visibility="visible" stroke="#ffca82" stroke-width="NaN" stroke-opacity="1" stroke-dasharray="none" fill="none" fill-opacity="1" data-name="group" data-title="group" deg="0" data-edit="1" data-centerx="58.5" data-centery="68.5"><path id="path133" visibility="visible" stroke="#000000" stroke-width="5" stroke-opacity="1" stroke-linecap="round" stroke-linejoin="round" stroke-dasharray="none" marker-start="none" marker-end="none" fill="#FFFFFF" fill-rule="evenodd" fill-opacity="1" data-name="curve" data-title="curve" deg="0" data-sw="5" data-grad="0" data-group="group235" data-edit="1" filter="none" d="M4 30 L113 30 L113 107 L4 107 L4 30 Z " data-centerx="12.44" data-centery="31.395"></path><g id="group234" visibility="visible" stroke="#ffca82" stroke-width="0" stroke-opacity="1" stroke-dasharray="none" fill="none" fill-opacity="1" data-name="group" data-title="group" deg="0" data-edit="1" data-centerx="13" data-centery="49.5"><g id="group214" visibility="visible" stroke="#ffca82" stroke-width="0" stroke-opacity="1" stroke-dasharray="none" fill="none" fill-opacity="1" data-name="group" data-title="group" deg="0" data-edit="1" data-centerx="14" data-centery="108.5" data-group="group235"><path id="path168" visibility="visible" stroke="#ffca82" stroke-width="0" stroke-opacity="1" stroke-linecap="round" stroke-linejoin="round" stroke-dasharray="none" marker-start="none" marker-end="none" fill="#FF8040" fill-rule="evenodd" fill-opacity="1" data-name="curve" data-title="curve" deg="0" data-sw="0" data-grad="0" data-group="group235" data-edit="1" filter="none" d="M8.888 54.8 C8.888 52.332 10.977 50.312 13.531 50.312 C16.085 50.312 18.175 52.332 18.175 54.8 C18.175 57.269 16.085 59.288 13.531 59.288 C10.977 59.288 8.888 57.269 8.888 54.8 Z " data-centerx="-10.534" data-centery="54.541"></path><path id="path169" visibility="visible" stroke="#ffca82" stroke-width="0" stroke-opacity="1" stroke-linecap="round" stroke-linejoin="round" stroke-dasharray="none" marker-start="none" marker-end="none" fill="#CCCCCC" fill-rule="evenodd" fill-opacity="1" data-name="curve" data-title="curve" deg="0" data-sw="0" data-grad="0" data-group="group235" data-edit="1" filter="none" d="M24.04 54.8 C24.04 52.332 26.13 50.312 28.684 50.312 C31.237 50.312 33.327 52.332 33.327 54.8 C33.327 57.269 31.237 59.288 28.684 59.288 C26.13 59.288 24.04 57.269 24.04 54.8 Z " data-centerx="4.62" data-centery="54.541"></path><path id="path170" visibility="visible" stroke="#ffca82" stroke-width="0" stroke-opacity="1" stroke-linecap="round" stroke-linejoin="round" stroke-dasharray="none" marker-start="none" marker-end="none" fill="#CCCCCC" fill-rule="evenodd" fill-opacity="1" data-name="curve" data-title="curve" deg="0" data-sw="0" data-grad="0" data-group="group235" data-edit="1" filter="none" d="M38.704 54.8 C38.704 52.332 40.794 50.312 43.348 50.312 C45.901 50.312 47.991 52.332 47.991 54.8 C47.991 57.269 45.901 59.288 43.348 59.288 C40.794 59.288 38.704 57.269 38.704 54.8 Z " data-centerx="19.283" data-centery="54.541"></path><path id="path171" visibility="visible" stroke="#ffca82" stroke-width="0" stroke-opacity="1" stroke-linecap="round" stroke-linejoin="round" stroke-dasharray="none" marker-start="none" marker-end="none" fill="#CCCCCC" fill-rule="evenodd" fill-opacity="1" data-name="curve" data-title="curve" deg="0" data-sw="0" data-grad="0" data-group="group235" data-edit="1" filter="none" d="M53.368 54.8 C53.368 52.332 55.457 50.312 58.012 50.312 C60.565 50.312 62.655 52.332 62.655 54.8 C62.655 57.269 60.565 59.288 58.012 59.288 C55.457 59.288 53.368 57.269 53.368 54.8 Z " data-centerx="33.947" data-centery="54.541"></path><path id="path172" visibility="visible" stroke="#ffca82" stroke-width="0" stroke-opacity="1" stroke-linecap="round" stroke-linejoin="round" stroke-dasharray="none" marker-start="none" marker-end="none" fill="#CCCCCC" fill-rule="evenodd" fill-opacity="1" data-name="curve" data-title="curve" deg="0" data-sw="0" data-grad="0" data-group="group235" data-edit="1" filter="none" d="M68.031 54.8 C68.031 52.332 70.121 50.312 72.675 50.312 C75.228 50.312 77.318 52.332 77.318 54.8 C77.318 57.269 75.228 59.288 72.675 59.288 C70.121 59.288 68.031 57.269 68.031 54.8 Z " data-centerx="48.61" data-centery="54.541"></path><path id="path173" visibility="visible" stroke="#ffca82" stroke-width="0" stroke-opacity="1" stroke-linecap="round" stroke-linejoin="round" stroke-dasharray="none" marker-start="none" marker-end="none" fill="#CCCCCC" fill-rule="evenodd" fill-opacity="1" data-name="curve" data-title="curve" deg="0" data-sw="0" data-grad="0" data-group="group235" data-edit="1" filter="none" d="M82.206 54.8 C82.206 52.332 84.296 50.312 86.849 50.312 C89.404 50.312 91.493 52.332 91.493 54.8 C91.493 57.269 89.404 59.288 86.849 59.288 C84.296 59.288 82.206 57.269 82.206 54.8 Z " data-centerx="62.786" data-centery="54.541"></path><path id="path174" visibility="visible" stroke="#ffca82" stroke-width="0" stroke-opacity="1" stroke-linecap="round" stroke-linejoin="round" stroke-dasharray="none" marker-start="none" marker-end="none" fill="#0080FF" fill-rule="evenodd" fill-opacity="1" data-name="curve" data-title="curve" deg="0" data-sw="0" data-grad="0" data-group="group235" data-edit="1" filter="none" d="M97.358 54.8 C97.358 52.332 99.448 50.312 102.003 50.312 C104.556 50.312 106.646 52.332 106.646 54.8 C106.646 57.269 104.556 59.288 102.003 59.288 C99.448 59.288 97.358 57.269 97.358 54.8 Z " data-centerx="77.938" data-centery="54.541"></path></g><g id="group215" visibility="visible" stroke="#ffca82" stroke-width="0" stroke-opacity="1" stroke-dasharray="none" fill="none" fill-opacity="1" data-name="group" data-title="group" deg="0" data-edit="1" data-centerx="14" data-centery="138.5" data-group="group235"><path id="path176" visibility="visible" stroke="#ffca82" stroke-width="0" stroke-opacity="1" stroke-linecap="round" stroke-linejoin="round" stroke-dasharray="none" marker-start="none" marker-end="none" fill="#FF8040" fill-rule="evenodd" fill-opacity="1" data-name="curve" data-title="curve" deg="0" data-sw="0" data-grad="0" data-group="group235" data-edit="1" filter="none" d="M8.888 68.973 C8.888 66.504 10.977 64.484 13.531 64.484 C16.085 64.484 18.175 66.504 18.175 68.973 C18.175 71.441 16.085 73.461 13.531 73.461 C10.977 73.461 8.888 71.441 8.888 68.973 Z " data-centerx="-10.534" data-centery="54.541"></path><path id="path177" visibility="visible" stroke="#ffca82" stroke-width="0" stroke-opacity="1" stroke-linecap="round" stroke-linejoin="round" stroke-dasharray="none" marker-start="none" marker-end="none" fill="#CCCCCC" fill-rule="evenodd" fill-opacity="1" data-name="curve" data-title="curve" deg="0" data-sw="0" data-grad="0" data-group="group235" data-edit="1" filter="none" d="M24.04 68.973 C24.04 66.504 26.13 64.484 28.684 64.484 C31.237 64.484 33.327 66.504 33.327 68.973 C33.327 71.441 31.237 73.461 28.684 73.461 C26.13 73.461 24.04 71.441 24.04 68.973 Z " data-centerx="4.62" data-centery="54.541"></path><path id="path178" visibility="visible" stroke="#ffca82" stroke-width="0" stroke-opacity="1" stroke-linecap="round" stroke-linejoin="round" stroke-dasharray="none" marker-start="none" marker-end="none" fill="#CCCCCC" fill-rule="evenodd" fill-opacity="1" data-name="curve" data-title="curve" deg="0" data-sw="0" data-grad="0" data-group="group235" data-edit="1" filter="none" d="M38.704 68.973 C38.704 66.504 40.794 64.484 43.348 64.484 C45.901 64.484 47.991 66.504 47.991 68.973 C47.991 71.441 45.901 73.461 43.348 73.461 C40.794 73.461 38.704 71.441 38.704 68.973 Z " data-centerx="19.283" data-centery="54.541"></path><path id="path179" visibility="visible" stroke="#ffca82" stroke-width="0" stroke-opacity="1" stroke-linecap="round" stroke-linejoin="round" stroke-dasharray="none" marker-start="none" marker-end="none" fill="#CCCCCC" fill-rule="evenodd" fill-opacity="1" data-name="curve" data-title="curve" deg="0" data-sw="0" data-grad="0" data-group="group235" data-edit="1" filter="none" d="M53.368 68.973 C53.368 66.504 55.457 64.484 58.012 64.484 C60.565 64.484 62.655 66.504 62.655 68.973 C62.655 71.441 60.565 73.461 58.012 73.461 C55.457 73.461 53.368 71.441 53.368 68.973 Z " data-centerx="33.947" data-centery="54.541"></path><path id="path180" visibility="visible" stroke="#ffca82" stroke-width="0" stroke-opacity="1" stroke-linecap="round" stroke-linejoin="round" stroke-dasharray="none" marker-start="none" marker-end="none" fill="#CCCCCC" fill-rule="evenodd" fill-opacity="1" data-name="curve" data-title="curve" deg="0" data-sw="0" data-grad="0" data-group="group235" data-edit="1" filter="none" d="M68.031 68.973 C68.031 66.504 70.121 64.484 72.675 64.484 C75.228 64.484 77.318 66.504 77.318 68.973 C77.318 71.441 75.228 73.461 72.675 73.461 C70.121 73.461 68.031 71.441 68.031 68.973 Z " data-centerx="48.61" data-centery="54.541"></path><path id="path181" visibility="visible" stroke="#ffca82" stroke-width="0" stroke-opacity="1" stroke-linecap="round" stroke-linejoin="round" stroke-dasharray="none" marker-start="none" marker-end="none" fill="#CCCCCC" fill-rule="evenodd" fill-opacity="1" data-name="curve" data-title="curve" deg="0" data-sw="0" data-grad="0" data-group="group235" data-edit="1" filter="none" d="M82.206 68.973 C82.206 66.504 84.296 64.484 86.849 64.484 C89.404 64.484 91.493 66.504 91.493 68.973 C91.493 71.441 89.404 73.461 86.849 73.461 C84.296 73.461 82.206 71.441 82.206 68.973 Z " data-centerx="62.786" data-centery="54.541"></path><path id="path182" visibility="visible" stroke="#ffca82" stroke-width="0" stroke-opacity="1" stroke-linecap="round" stroke-linejoin="round" stroke-dasharray="none" marker-start="none" marker-end="none" fill="#0080FF" fill-rule="evenodd" fill-opacity="1" data-name="curve" data-title="curve" deg="0" data-sw="0" data-grad="0" data-group="group235" data-edit="1" filter="none" d="M97.358 68.973 C97.358 66.504 99.448 64.484 102.003 64.484 C104.556 64.484 106.646 66.504 106.646 68.973 C106.646 71.441 104.556 73.461 102.003 73.461 C99.448 73.461 97.358 71.441 97.358 68.973 Z " data-centerx="77.938" data-centery="54.541"></path></g><path id="path217" visibility="visible" stroke="#ffca82" stroke-width="0" stroke-opacity="1" stroke-linecap="round" stroke-linejoin="round" stroke-dasharray="none" marker-start="none" marker-end="none" fill="#CCCCCC" fill-rule="evenodd" fill-opacity="1" data-name="curve" data-title="curve" deg="0" data-sw="0" data-grad="0" data-group="group235" data-edit="1" filter="none" d="M24.04 40.629 C24.04 38.161 26.13 36.141 28.684 36.141 C31.237 36.141 33.327 38.161 33.327 40.629 C33.327 43.097 31.237 45.117 28.684 45.117 C26.13 45.117 24.04 43.097 24.04 40.629 Z " data-centerx="-16.887" data-centery="45.566"></path><path id="path218" visibility="visible" stroke="#ffca82" stroke-width="0" stroke-opacity="1" stroke-linecap="round" stroke-linejoin="round" stroke-dasharray="none" marker-start="none" marker-end="none" fill="#CCCCCC" fill-rule="evenodd" fill-opacity="1" data-name="curve" data-title="curve" deg="0" data-sw="0" data-grad="0" data-group="group235" data-edit="1" filter="none" d="M38.704 40.629 C38.704 38.161 40.794 36.141 43.348 36.141 C45.901 36.141 47.991 38.161 47.991 40.629 C47.991 43.097 45.901 45.117 43.348 45.117 C40.794 45.117 38.704 43.097 38.704 40.629 Z " data-centerx="-2.223" data-centery="45.566"></path><path id="path219" visibility="visible" stroke="#ffca82" stroke-width="0" stroke-opacity="1" stroke-linecap="round" stroke-linejoin="round" stroke-dasharray="none" marker-start="none" marker-end="none" fill="#CCCCCC" fill-rule="evenodd" fill-opacity="1" data-name="curve" data-title="curve" deg="0" data-sw="0" data-grad="0" data-group="group235" data-edit="1" filter="none" d="M53.368 40.629 C53.368 38.161 55.457 36.141 58.012 36.141 C60.565 36.141 62.655 38.161 62.655 40.629 C62.655 43.097 60.565 45.117 58.012 45.117 C55.457 45.117 53.368 43.097 53.368 40.629 Z " data-centerx="12.44" data-centery="45.566"></path><path id="path220" visibility="visible" stroke="#ffca82" stroke-width="0" stroke-opacity="1" stroke-linecap="round" stroke-linejoin="round" stroke-dasharray="none" marker-start="none" marker-end="none" fill="#CCCCCC" fill-rule="evenodd" fill-opacity="1" data-name="curve" data-title="curve" deg="0" data-sw="0" data-grad="0" data-group="group235" data-edit="1" filter="none" d="M68.031 40.629 C68.031 38.161 70.121 36.141 72.675 36.141 C75.228 36.141 77.318 38.161 77.318 40.629 C77.318 43.097 75.228 45.117 72.675 45.117 C70.121 45.117 68.031 43.097 68.031 40.629 Z " data-centerx="27.104" data-centery="45.566"></path><path id="path221" visibility="visible" stroke="#ffca82" stroke-width="0" stroke-opacity="1" stroke-linecap="round" stroke-linejoin="round" stroke-dasharray="none" marker-start="none" marker-end="none" fill="#CCCCCC" fill-rule="evenodd" fill-opacity="1" data-name="curve" data-title="curve" deg="0" data-sw="0" data-grad="0" data-group="group235" data-edit="1" filter="none" d="M82.206 40.629 C82.206 38.161 84.296 36.141 86.849 36.141 C89.404 36.141 91.493 38.161 91.493 40.629 C91.493 43.097 89.404 45.117 86.849 45.117 C84.296 45.117 82.206 43.097 82.206 40.629 Z " data-centerx="41.278" data-centery="45.566"></path><path id="path222" visibility="visible" stroke="#ffca82" stroke-width="0" stroke-opacity="1" stroke-linecap="round" stroke-linejoin="round" stroke-dasharray="none" marker-start="none" marker-end="none" fill="#0080FF" fill-rule="evenodd" fill-opacity="1" data-name="curve" data-title="curve" deg="0" data-sw="0" data-grad="0" data-group="group235" data-edit="1" filter="none" d="M97.358 40.629 C97.358 38.161 99.448 36.141 102.003 36.141 C104.556 36.141 106.646 38.161 106.646 40.629 C106.646 43.097 104.556 45.117 102.003 45.117 C99.448 45.117 97.358 43.097 97.358 40.629 Z " data-centerx="56.431" data-centery="45.566"></path><path id="path223" visibility="visible" stroke="#ffca82" stroke-width="0" stroke-opacity="1" stroke-linecap="round" stroke-linejoin="round" stroke-dasharray="none" marker-start="none" marker-end="none" fill="#FF8040" fill-rule="evenodd" fill-opacity="1" data-name="curve" data-title="curve" deg="0" data-sw="0" data-grad="0" data-group="group235" data-edit="1" filter="none" d="M8.888 97.316 C8.888 94.848 10.977 92.828 13.531 92.828 C16.085 92.828 18.175 94.848 18.175 97.316 C18.175 99.784 16.085 101.803 13.531 101.803 C10.977 101.803 8.888 99.784 8.888 97.316 Z " data-centerx="-32.04" data-centery="102.254"></path><path id="path224" visibility="visible" stroke="#ffca82" stroke-width="0" stroke-opacity="1" stroke-linecap="round" stroke-linejoin="round" stroke-dasharray="none" marker-start="none" marker-end="none" fill="#CCCCCC" fill-rule="evenodd" fill-opacity="1" data-name="curve" data-title="curve" deg="0" data-sw="0" data-grad="0" data-group="group235" data-edit="1" filter="none" d="M24.04 97.316 C24.04 94.848 26.13 92.828 28.684 92.828 C31.237 92.828 33.327 94.848 33.327 97.316 C33.327 99.784 31.237 101.803 28.684 101.803 C26.13 101.803 24.04 99.784 24.04 97.316 Z " data-centerx="-16.887" data-centery="102.254"></path><path id="path225" visibility="visible" stroke="#ffca82" stroke-width="0" stroke-opacity="1" stroke-linecap="round" stroke-linejoin="round" stroke-dasharray="none" marker-start="none" marker-end="none" fill="#CCCCCC" fill-rule="evenodd" fill-opacity="1" data-name="curve" data-title="curve" deg="0" data-sw="0" data-grad="0" data-group="group235" data-edit="1" filter="none" d="M38.704 97.316 C38.704 94.848 40.794 92.828 43.348 92.828 C45.901 92.828 47.991 94.848 47.991 97.316 C47.991 99.784 45.901 101.803 43.348 101.803 C40.794 101.803 38.704 99.784 38.704 97.316 Z " data-centerx="-2.223" data-centery="102.254"></path><path id="path226" visibility="visible" stroke="#ffca82" stroke-width="0" stroke-opacity="1" stroke-linecap="round" stroke-linejoin="round" stroke-dasharray="none" marker-start="none" marker-end="none" fill="#CCCCCC" fill-rule="evenodd" fill-opacity="1" data-name="curve" data-title="curve" deg="0" data-sw="0" data-grad="0" data-group="group235" data-edit="1" filter="none" d="M53.368 97.316 C53.368 94.848 55.457 92.828 58.012 92.828 C60.565 92.828 62.655 94.848 62.655 97.316 C62.655 99.784 60.565 101.803 58.012 101.803 C55.457 101.803 53.368 99.784 53.368 97.316 Z " data-centerx="12.44" data-centery="102.254"></path><path id="path227" visibility="visible" stroke="#ffca82" stroke-width="0" stroke-opacity="1" stroke-linecap="round" stroke-linejoin="round" stroke-dasharray="none" marker-start="none" marker-end="none" fill="#FF8040" fill-rule="evenodd" fill-opacity="1" data-name="curve" data-title="curve" deg="0" data-sw="0" data-grad="0" data-group="group235" data-edit="1" filter="none" d="M8.888 83.145 C8.888 80.677 10.977 78.657 13.531 78.657 C16.085 78.657 18.175 80.677 18.175 83.145 C18.175 85.613 16.085 87.633 13.531 87.633 C10.977 87.633 8.888 85.613 8.888 83.145 Z " data-centerx="-32.04" data-centery="88.081"></path><path id="path228" visibility="visible" stroke="#ffca82" stroke-width="0" stroke-opacity="1" stroke-linecap="round" stroke-linejoin="round" stroke-dasharray="none" marker-start="none" marker-end="none" fill="#FF8040" fill-rule="evenodd" fill-opacity="1" data-name="curve" data-title="curve" deg="0" data-sw="0" data-grad="0" data-group="group235" data-edit="1" filter="none" d="M24.04 83.145 C24.04 80.677 26.13 78.657 28.684 78.657 C31.237 78.657 33.327 80.677 33.327 83.145 C33.327 85.613 31.237 87.633 28.684 87.633 C26.13 87.633 24.04 85.613 24.04 83.145 Z " data-centerx="-16.887" data-centery="88.081"></path><path id="path229" visibility="visible" stroke="#ffca82" stroke-width="0" stroke-opacity="1" stroke-linecap="round" stroke-linejoin="round" stroke-dasharray="none" marker-start="none" marker-end="none" fill="#CCCCCC" fill-rule="evenodd" fill-opacity="1" data-name="curve" data-title="curve" deg="0" data-sw="0" data-grad="0" data-group="group235" data-edit="1" filter="none" d="M38.704 83.145 C38.704 80.677 40.794 78.657 43.348 78.657 C45.901 78.657 47.991 80.677 47.991 83.145 C47.991 85.613 45.901 87.633 43.348 87.633 C40.794 87.633 38.704 85.613 38.704 83.145 Z " data-centerx="-2.223" data-centery="88.081"></path><path id="path230" visibility="visible" stroke="#ffca82" stroke-width="0" stroke-opacity="1" stroke-linecap="round" stroke-linejoin="round" stroke-dasharray="none" marker-start="none" marker-end="none" fill="#CCCCCC" fill-rule="evenodd" fill-opacity="1" data-name="curve" data-title="curve" deg="0" data-sw="0" data-grad="0" data-group="group235" data-edit="1" filter="none" d="M53.368 83.145 C53.368 80.677 55.457 78.657 58.012 78.657 C60.565 78.657 62.655 80.677 62.655 83.145 C62.655 85.613 60.565 87.633 58.012 87.633 C55.457 87.633 53.368 85.613 53.368 83.145 Z " data-centerx="12.44" data-centery="88.081"></path><path id="path231" visibility="visible" stroke="#ffca82" stroke-width="0" stroke-opacity="1" stroke-linecap="round" stroke-linejoin="round" stroke-dasharray="none" marker-start="none" marker-end="none" fill="#CCCCCC" fill-rule="evenodd" fill-opacity="1" data-name="curve" data-title="curve" deg="0" data-sw="0" data-grad="0" data-group="group235" data-edit="1" filter="none" d="M68.031 83.145 C68.031 80.677 70.121 78.657 72.675 78.657 C75.228 78.657 77.318 80.677 77.318 83.145 C77.318 85.613 75.228 87.633 72.675 87.633 C70.121 87.633 68.031 85.613 68.031 83.145 Z " data-centerx="27.104" data-centery="88.081"></path><path id="path232" visibility="visible" stroke="#ffca82" stroke-width="0" stroke-opacity="1" stroke-linecap="round" stroke-linejoin="round" stroke-dasharray="none" marker-start="none" marker-end="none" fill="#CCCCCC" fill-rule="evenodd" fill-opacity="1" data-name="curve" data-title="curve" deg="0" data-sw="0" data-grad="0" data-group="group235" data-edit="1" filter="none" d="M82.206 83.145 C82.206 80.677 84.296 78.657 86.849 78.657 C89.404 78.657 91.493 80.677 91.493 83.145 C91.493 85.613 89.404 87.633 86.849 87.633 C84.296 87.633 82.206 85.613 82.206 83.145 Z " data-centerx="41.278" data-centery="88.081"></path><path id="path233" visibility="visible" stroke="#ffca82" stroke-width="0" stroke-opacity="1" stroke-linecap="round" stroke-linejoin="round" stroke-dasharray="none" marker-start="none" marker-end="none" fill="#0080FF" fill-rule="evenodd" fill-opacity="1" data-name="curve" data-title="curve" deg="0" data-sw="0" data-grad="0" data-group="group235" data-edit="1" filter="none" d="M97.358 83.145 C97.358 80.677 99.448 78.657 102.003 78.657 C104.556 78.657 106.646 80.677 106.646 83.145 C106.646 85.613 104.556 87.633 102.003 87.633 C99.448 87.633 97.358 85.613 97.358 83.145 Z " data-centerx="56.431" data-centery="88.081"></path></g></g><path id="path238" visibility="visible" stroke="#000000" stroke-width="5" stroke-opacity="1" stroke-linecap="round" stroke-linejoin="round" stroke-dasharray="none" marker-start="none" marker-end="none" fill="#999999" fill-rule="evenodd" fill-opacity="1" data-name="curve" data-title="curve" deg="0" data-sw="5" data-grad="0" data-group="0" data-edit="1" filter="none" d="M4 12 L113 12 L113 30 L4 30 L4 12 Z " data-centerx="58.5" data-centery="21"></path></g><g id="settings" visibility="hidden" data-dn0="primalDraw" data-dn1="#FFFFFF" data-dn2="#D2D2D2" data-dn3="18" data-dn4="#ffca82" data-dn5="#B3B3B3" data-dn6="1" data-dn7="1" data-dn8="0" data-dn9="round" data-dn10="round" data-dn11="none" data-dn12="none" data-dn13="none" data-dn14="evenodd" data-dn15="10" data-dn16="1" data-dn17="120" data-dn18="120" data-dn19="10" data-dn20="0" data-dn21="1" data-dn22="1" data-dn23="239" data-dn24="group235,path238" data-dn25="4" data-dn26="url(#linear0)" data-dn27="url(#linear1)" data-dn28="url(#radial0)" data-dn29="url(#radial1)" data-dn30="#FF8000" data-dn31="#FFFF00" data-dn32="#000000" data-dn33="1" data-dn34="1" data-dn35="10" data-dn36="" data-dn37="0" data-dn38="105"></g></svg>