<svg id="exportSVG" visibility="visible" xmlns="http://www.w3.org/2000/svg" xmlns:xlink="http://www.w3.org/1999/xlink" version="1.1" data-info="draw.ninja" data-name="titlelogo" viewBox="0 0 360 100" width="360" height="100" style="position: fixed; top: 0px; left: 0px;"><defs id="defsExport"><filter id="filter0"><feGaussianBlur stdDeviation="0"></feGaussianBlur></filter><pattern id="patternImage" patternUnits="userSpaceOnUse" x="0" y="0" width="1" height="1" data-x="0" data-y="0" data-width="1" data-height="1" data-multx="1" data-multy="1" patternTransform="matrix(1,0,0,1,0,0)" data-transs="0" data-transf="0" data-source="patternImage" data-draw="1" fill="#00FF40" fill-opacity="1"></pattern><pattern id="pattern0" patternUnits="userSpaceOnUse" x="0" y="0" width="10" height="10" data-x="0" data-y="0" data-width="10" data-height="10" data-multx="1" data-multy="1" stroke="none" patternTransform="matrix(1,0,0,1,0,0)" data-transs="0" data-transf="0" data-source="Pattern 0" data-draw="1" fill="#00FF40" fill-opacity="1"><path transform="matrix(1,0,0,1,0,0)" d="M0 0 L5 0 L5 5 L0 5 L0 0 Z"></path></pattern><pattern id="pattern1" patternUnits="userSpaceOnUse" x="0" y="0" width="10" height="10" data-x="0" data-y="0" data-width="10" data-height="10" data-multx="1" data-multy="1" stroke="none" patternTransform="matrix(1,0,0,1,0,0)" data-transs="0" data-transf="0" data-source="Pattern 1" data-draw="1" fill="#00FF40" fill-opacity="1"><path transform="matrix(1,0,0,1,0,0)" d="M0 5 L5 0 L10 5 L5 10 L0 5 Z"></path></pattern><pattern id="pattern2" patternUnits="userSpaceOnUse" x="0" y="0" width="10" height="10" data-x="0" data-y="0" data-width="10" data-height="10" data-multx="1" data-multy="1" stroke="none" patternTransform="matrix(1,0,0,1,0,0)" data-transs="0" data-transf="0" data-source="Pattern 2" data-draw="1" fill="#00FF40" fill-opacity="1"><path transform="matrix(1,0,0,1,0,0)" d="M0 9 L5 1 L10 9 L0 9 Z"></path></pattern><pattern id="pattern3" patternUnits="userSpaceOnUse" x="0" y="0" width="10" height="10" data-x="0" data-y="0" data-width="10" data-height="10" data-multx="1" data-multy="1" stroke="none" patternTransform="matrix(1,0,0,1,0,0)" data-transs="0" data-transf="0" data-source="Pattern 3" data-draw="1" fill="#00FF40" fill-opacity="1"><path transform="matrix(1,0,0,1,0,0)" d="M0 5 C0 2.25 2.25 0 5 0 C7.75 0 10 2.25 10 5 C10 7.75 7.75 10 5 10 C2.25 10 0 7.75 0 5 Z"></path></pattern><pattern id="pattern4" patternUnits="userSpaceOnUse" x="0" y="0" width="10" height="10" data-x="0" data-y="0" data-width="10" data-height="10" data-multx="1" data-multy="1" stroke="none" patternTransform="matrix(1,0,0,1,0,0)" data-transs="0" data-transf="0" data-source="Pattern 4" data-draw="1" fill="#00FF40" fill-opacity="1"><path transform="matrix(1,0,0,1,0,0)" d="M0 5 L4 4 L5 0 L6 4 L10 5 L6 6 L5 10 L4 6 L0 5 Z"></path></pattern><pattern id="pattern5" patternUnits="userSpaceOnUse" x="0" y="0" width="10" height="10" data-x="0" data-y="0" data-width="10" data-height="10" data-multx="1" data-multy="1" stroke="none" patternTransform="matrix(1,0,0,1,0,0)" data-transs="0" data-transf="0" data-source="Pattern 5" data-draw="1" fill="#00FF40" fill-opacity="1"><path transform="matrix(1,0,0,1,0,0)" d="M5 10 C-5 2.75 3 -1.75 5 1 C7 -1.75 15 2.75 5 10 Z"></path></pattern><pattern id="pattern6" patternUnits="userSpaceOnUse" x="0" y="0" width="10" height="10" data-x="0" data-y="0" data-width="10" data-height="10" data-multx="1" data-multy="1" stroke="none" patternTransform="matrix(1,0,0,1,0,0)" data-transs="0" data-transf="0" data-source="Pattern 6" data-draw="1" fill="#00FF40" fill-opacity="1"><path transform="matrix(1,0,0,1,0,0)" d="M3 0 L7 0 L7 10 L3 10 L3 0 Z"></path></pattern><pattern id="pattern7" patternUnits="userSpaceOnUse" x="0" y="0" width="10" height="10" data-x="0" data-y="0" data-width="10" data-height="10" data-multx="1" data-multy="1" stroke="none" patternTransform="matrix(1,0,0,1,0,0)" data-transs="0" data-transf="0" data-source="Pattern 7" data-draw="1" fill="#00FF40" fill-opacity="1"><path transform="matrix(1,0,0,1,0,0)" d="M10 3 L10 7 L0 7 L0 3 L10 3 Z"></path></pattern><pattern id="pattern8" patternUnits="userSpaceOnUse" x="0" y="0" width="10" height="10" data-x="0" data-y="0" data-width="10" data-height="10" data-multx="1" data-multy="1" stroke="none" patternTransform="matrix(1,0,0,1,0,0)" data-transs="0" data-transf="0" data-source="Pattern 8" data-draw="1" fill="#00FF40" fill-opacity="1"><path transform="matrix(1,0,0,1,0,0)" d="M0 10 L3 3 L10 0 L7 7 L0 10 Z"></path></pattern><pattern id="pattern9" patternUnits="userSpaceOnUse" x="0" y="0" width="10" height="10" data-x="0" data-y="0" data-width="10" data-height="10" data-multx="1" data-multy="1" stroke="none" patternTransform="matrix(1,0,0,1,0,0)" data-transs="0" data-transf="0" data-source="Pattern 9" data-draw="1" fill="#00FF40" fill-opacity="1"><path transform="matrix(1,0,0,1,0,0)" d="M0 4 L10 4 L10 6 L0 6 L0 4 Z M4 10 L4 0 L6 0 L6 10 L4 10 Z"></path></pattern><linearGradient id="linearSystem" gradientUnits="objectBoundingBox" x1="0%" y1="50%" x2="100%" y2="50%" spreadMethod="pad"><stop offset="50%" stop-color="#D0D0D0" stop-opacity="1"></stop><stop offset="100%" stop-color="transparent" stop-opacity="1"></stop></linearGradient><linearGradient id="linearSystem1" gradientUnits="objectBoundingBox" x1="0%" y1="50%" x2="100%" y2="50%" spreadMethod="pad"><stop offset="30%" stop-color="#D0D0D0" stop-opacity="1"></stop><stop offset="100%" stop-color="transparent" stop-opacity="1"></stop></linearGradient><linearGradient id="linearSystem2" gradientUnits="objectBoundingBox" x1="0%" y1="50%" x2="50%" y2="50%" spreadMethod="repeat"><stop offset="30%" stop-color="#D0D0D0" stop-opacity="1"></stop><stop offset="100%" stop-color="transparent" stop-opacity="1"></stop></linearGradient><linearGradient id="linearSystem3" gradientUnits="objectBoundingBox" x1="0%" y1="50%" x2="50%" y2="50%" spreadMethod="reflect"><stop offset="30%" stop-color="#D0D0D0" stop-opacity="1"></stop><stop offset="100%" stop-color="transparent" stop-opacity="1"></stop></linearGradient><radialGradient id="radialSystem" gradientUnits="objectBoundingBox" r="0.5" cx="0.5" fx="0.5" cy="0.5" fy="0.5" spreadMethod="pad"><stop offset="50%" stop-color="#D0D0D0" stop-opacity="1"></stop><stop offset="100%" stop-color="transparent" stop-opacity="1"></stop></radialGradient><pattern id="patternSystem" patternUnits="userSpaceOnUse" x="0" y="0" width="6" height="8"><path stroke="#D0D0D0" stroke-width="5" fill="none" d="M0 0 L0 10"></path></pattern><linearGradient id="linear0" gradientUnits="objectBoundingBox" x1="0%" y1="50%" x2="100%" y2="50%" spreadMethod="pad"><stop offset="0%" stop-color="#FF8000" stop-opacity="1"></stop><stop offset="100%" stop-color="#FFFF00" stop-opacity="1"></stop></linearGradient><linearGradient id="linear1" gradientUnits="objectBoundingBox" x1="0%" y1="50%" x2="100%" y2="50%" spreadMethod="pad"><stop offset="0%" stop-color="#FFFF00" stop-opacity="1"></stop><stop offset="100%" stop-color="#FF8000" stop-opacity="1"></stop></linearGradient><linearGradient id="linearImport" gradientUnits="objectBoundingBox" x1="0%" y1="50%" x2="100%" y2="50%" spreadMethod="pad"><stop offset="0%" stop-color="#FFFFFF" stop-opacity="0.1"></stop><stop offset="100%" stop-color="#000000" stop-opacity="0.1"></stop></linearGradient><radialGradient id="radial0" gradientUnits="objectBoundingBox" r="0.5" cx="0.5" fx="0.5" cy="0.5" fy="0.5" spreadMethod="pad"><stop offset="0%" stop-color="#FF8000" stop-opacity="1"></stop><stop offset="100%" stop-color="#FFFF00" stop-opacity="1"></stop></radialGradient><radialGradient id="radial1" gradientUnits="objectBoundingBox" r="0.5" cx="0.5" fx="0.5" cy="0.5" fy="0.5" spreadMethod="pad"><stop offset="0%" stop-color="#FFFF00" stop-opacity="1"></stop><stop offset="100%" stop-color="#FF8000" stop-opacity="1"></stop></radialGradient><radialGradient id="radialImport" gradientUnits="objectBoundingBox" r="0.5" cx="0.5" fx="0.5" cy="0.5" fy="0.5" spreadMethod="pad"><stop offset="0%" stop-color="#FFFFFF" stop-opacity="0.1"></stop><stop offset="100%" stop-color="#000000" stop-opacity="0.1"></stop></radialGradient><radialGradient id="radial2" gradientUnits="objectBoundingBox" r="0.5" cx="0.5" fx="0.5" cy="0.5" fy="0.5" spreadMethod="pad"><stop offset="0%" stop-color="#FF8000" stop-opacity="1"></stop><stop offset="100%" stop-color="#FFFF00" stop-opacity="1"></stop></radialGradient><radialGradient id="radial3" gradientUnits="objectBoundingBox" r="0.5" cx="0.225" fx="0.225" cy="0.5416666666666667" fy="0.5416666666666667" spreadMethod="pad"><stop offset="0%" stop-color="#80FFFF" stop-opacity="1"></stop><stop offset="100%" stop-color="#0080FF" stop-opacity="1"></stop></radialGradient><filter id="filter1"><feGaussianBlur stdDeviation="0"></feGaussianBlur></filter><filter id="filter2"><feGaussianBlur stdDeviation="0"></feGaussianBlur></filter><filter id="filter3"><feGaussianBlur stdDeviation="0"></feGaussianBlur></filter><filter id="filter4"><feGaussianBlur stdDeviation="0"></feGaussianBlur></filter><filter id="filter5"><feGaussianBlur stdDeviation="0"></feGaussianBlur></filter><filter id="filter6"><feGaussianBlur stdDeviation="0"></feGaussianBlur></filter><filter id="filter7"><feGaussianBlur stdDeviation="0"></feGaussianBlur></filter><filter id="filter8"><feGaussianBlur stdDeviation="0"></feGaussianBlur></filter><filter id="filter9"><feGaussianBlur stdDeviation="0"></feGaussianBlur></filter><filter id="filter10"><feGaussianBlur stdDeviation="0"></feGaussianBlur></filter><filter id="filter11"><feGaussianBlur stdDeviation="0"></feGaussianBlur></filter><radialGradient id="radial4" gradientUnits="objectBoundingBox" r="0.5" cx="0.3916666666666667" fx="0.3916666666666667" cy="0.5166666666666667" fy="0.5166666666666667" spreadMethod="pad"><stop offset="0%" stop-color="#FFFFFF" stop-opacity="1"></stop><stop offset="100%" stop-color="#999999" stop-opacity="1"></stop></radialGradient><radialGradient id="radial5" gradientUnits="objectBoundingBox" r="0.5" cx="0.55" fx="0.55" cy="0.5583333333333333" fy="0.5583333333333333" spreadMethod="pad"><stop offset="0%" stop-color="#FFFFFF" stop-opacity="1"></stop><stop offset="100%" stop-color="#999999" stop-opacity="1"></stop></radialGradient><linearGradient id="linear6" gradientUnits="objectBoundingBox" x1="0%" y1="50%" x2="100%" y2="50%" spreadMethod="pad"><stop offset="0%" stop-color="#FFFF00" stop-opacity="1"></stop><stop offset="100%" stop-color="#FF8000" stop-opacity="1"></stop></linearGradient><radialGradient id="radial7" gradientUnits="objectBoundingBox" r="0.5" cx="0.4" fx="0.4" cy="0.45" fy="0.45" spreadMethod="pad"><stop offset="0%" stop-color="#000000" stop-opacity="1"></stop><stop offset="100%" stop-color="#999999" stop-opacity="1"></stop></radialGradient><linearGradient id="linear8" gradientUnits="objectBoundingBox" x1="0%" y1="50%" x2="100%" y2="50%" spreadMethod="pad"><stop offset="0%" stop-color="#E6E6E6" stop-opacity="1"></stop><stop offset="100%" stop-color="#B3B3B3" stop-opacity="1"></stop></linearGradient><radialGradient id="radial9" gradientUnits="objectBoundingBox" r="0.5" cx="0.5" fx="0.5" cy="0.5" fy="0.5" spreadMethod="pad"><stop offset="0%" stop-color="#B3B3B3" stop-opacity="1"></stop><stop offset="100%" stop-color="#FFFFFF" stop-opacity="1"></stop></radialGradient><radialGradient id="radial10" gradientUnits="objectBoundingBox" r="0.5" cx="0.5333333333333333" fx="0.5333333333333333" cy="0.5583333333333333" fy="0.5583333333333333" spreadMethod="pad"><stop offset="0%" stop-color="#FFFFFF" stop-opacity="1"></stop><stop offset="100%" stop-color="#B3B3B3" stop-opacity="1"></stop></radialGradient><radialGradient id="radial11" gradientUnits="objectBoundingBox" r="0.5" cx="0.375" fx="0.375" cy="0.45" fy="0.45" spreadMethod="pad"><stop offset="0%" stop-color="#CCCCCC" stop-opacity="1"></stop><stop offset="100%" stop-color="#999999" stop-opacity="1"></stop></radialGradient></defs><rect id="pageExport" x="0" y="0" width="360" height="100" fill="none" fill-opacity="0" stroke="none" stroke-width="0"></rect><g id="objectsExport" visibility="visible"><g id="group30" visibility="visible" stroke="#ffca82" stroke-width="NaN" stroke-opacity="1" stroke-dasharray="none" fill="none" fill-opacity="1" data-name="group" data-title="text" deg="0" data-edit="1" data-centerx="244.004" data-centery="46.715"><text id="text31" visibility="visible" font-family="Times New Roman" font-size="18" font-weight="normal" font-style="normal" transform="matrix(2.733,0,0,3.498,-1983.335,-1145.833)" stroke="none" stroke-width="2" stroke-opacity="1" stroke-dasharray="none" fill="#B3B3B3" fill-opacity="1" data-name="text" data-title="text" deg="0" data-sw="2" data-group="group30" data-trans="translate(-520,-290) matrix(2.733,0,0,3.498,-1463.335,-855.833)" data-edit="1" filter="none" x="757" y="348" data-centerx="276.633" data-centery="46.979">SilverWorker</text></g><g id="group43" visibility="visible" stroke="#ffca82" stroke-width="2" stroke-opacity="1" stroke-dasharray="none" fill="none" fill-opacity="1" data-name="group" data-title="group" deg="0" data-edit="1" data-centerx="38.405" data-centery="50.69"><path id="path32" visibility="visible" stroke="#000000" stroke-width="5" stroke-opacity="1" stroke-linecap="round" stroke-linejoin="round" stroke-dasharray="none" marker-start="none" marker-end="none" fill="#CCCCCC" fill-rule="evenodd" fill-opacity="1" data-name="curve" data-title="curve" deg="0" data-sw="5" data-grad="0" data-group="group43" data-edit="1" filter="url(#filter1)" d="M2.952 20.166 L73.857 20.166 L73.857 81.214 L2.952 81.214 L2.952 20.166 Z " data-centerx="45.405" data-centery="51.69"></path><path id="path33" visibility="visible" stroke="#FFFF00" stroke-width="2" stroke-opacity="1" stroke-linecap="round" stroke-linejoin="round" stroke-dasharray="none" marker-start="none" marker-end="none" fill="#FFFF00" fill-rule="evenodd" fill-opacity="1" data-name="curve" data-title="curve" deg="0" data-sw="2" data-grad="0" data-group="group43" data-edit="1" filter="url(#filter2)" d="M26.915 41.431 C26.915 39.401 28.628 37.739 30.725 37.739 C32.821 37.739 34.536 39.401 34.536 41.431 C34.536 43.461 32.821 45.123 30.725 45.123 C28.628 45.123 26.915 43.461 26.915 41.431 Z " data-centerx="37.725" data-centery="42.431"></path><path id="path34" visibility="visible" stroke="#FFFF00" stroke-width="2" stroke-opacity="1" stroke-linecap="round" stroke-linejoin="round" stroke-dasharray="none" marker-start="none" marker-end="none" fill="#FFFF00" fill-rule="evenodd" fill-opacity="1" data-name="curve" data-title="curve" deg="0" data-sw="2" data-grad="0" data-group="group43" data-edit="1" filter="url(#filter3)" d="M26.915 57.584 C26.915 55.553 28.628 53.891 30.725 53.891 C32.821 53.891 34.536 55.553 34.536 57.584 C34.536 59.614 32.821 61.275 30.725 61.275 C28.628 61.275 26.915 59.614 26.915 57.584 Z " data-centerx="37.725" data-centery="58.583"></path><path id="path35" visibility="visible" stroke="#FFFF00" stroke-width="2" stroke-opacity="1" stroke-linecap="round" stroke-linejoin="round" stroke-dasharray="none" marker-start="none" marker-end="none" fill="#FFFF00" fill-rule="evenodd" fill-opacity="1" data-name="curve" data-title="curve" deg="0" data-sw="2" data-grad="0" data-group="group43" data-edit="1" filter="url(#filter4)" d="M26.915 73.736 C26.915 71.706 28.628 70.043 30.725 70.043 C32.821 70.043 34.536 71.706 34.536 73.736 C34.536 75.767 32.821 77.428 30.725 77.428 C28.628 77.428 26.915 75.767 26.915 73.736 Z " data-centerx="37.725" data-centery="74.736"></path><path id="path36" visibility="visible" stroke="#FFFFFF" stroke-width="2" stroke-opacity="1" stroke-linecap="round" stroke-linejoin="round" stroke-dasharray="none" marker-start="none" marker-end="none" fill="#FFFFFF" fill-rule="evenodd" fill-opacity="1" data-name="curve" data-title="curve" deg="0" data-sw="2" data-grad="0" data-group="group43" data-edit="1" filter="url(#filter5)" d="M10.243 41.431 C10.243 39.401 11.956 37.739 14.053 37.739 C16.149 37.739 17.864 39.401 17.864 41.431 C17.864 43.461 16.149 45.123 14.053 45.123 C11.956 45.123 10.243 43.461 10.243 41.431 Z " data-centerx="21.053" data-centery="42.431"></path><path id="path37" visibility="visible" stroke="#ffba00" stroke-width="2" stroke-opacity="1" stroke-linecap="round" stroke-linejoin="round" stroke-dasharray="none" marker-start="none" marker-end="none" fill="#ffba00" fill-rule="evenodd" fill-opacity="1" data-name="curve" data-title="curve" deg="0" data-sw="2" data-grad="0" data-group="group43" data-edit="1" filter="url(#filter6)" d="M60.259 41.431 C60.259 39.401 61.973 37.739 64.069 37.739 C66.165 37.739 67.88 39.401 67.88 41.431 C67.88 43.461 66.165 45.123 64.069 45.123 C61.973 45.123 60.259 43.461 60.259 41.431 Z " data-centerx="71.069" data-centery="42.431"></path><path id="path38" visibility="visible" stroke="#FFFFFF" stroke-width="2" stroke-opacity="1" stroke-linecap="round" stroke-linejoin="round" stroke-dasharray="none" marker-start="none" marker-end="none" fill="#FFFFFF" fill-rule="evenodd" fill-opacity="1" data-name="curve" data-title="curve" deg="0" data-sw="2" data-grad="0" data-group="group43" data-edit="1" filter="url(#filter7)" d="M10.243 73.505 C10.243 71.475 11.956 69.813 14.053 69.813 C16.149 69.813 17.864 71.475 17.864 73.505 C17.864 75.536 16.149 77.197 14.053 77.197 C11.956 77.197 10.243 75.536 10.243 73.505 Z " data-centerx="21.053" data-centery="74.505"></path><path id="path39" visibility="visible" stroke="#FFFFFF" stroke-width="2" stroke-opacity="1" stroke-linecap="round" stroke-linejoin="round" stroke-dasharray="none" marker-start="none" marker-end="none" fill="#FFFFFF" fill-rule="evenodd" fill-opacity="1" data-name="curve" data-title="curve" deg="0" data-sw="2" data-grad="0" data-group="group43" data-edit="1" filter="url(#filter8)" d="M10.243 57.584 C10.243 55.553 11.956 53.891 14.053 53.891 C16.149 53.891 17.864 55.553 17.864 57.584 C17.864 59.614 16.149 61.275 14.053 61.275 C11.956 61.275 10.243 59.614 10.243 57.584 Z " data-centerx="21.053" data-centery="58.583"></path><path id="path40" visibility="visible" stroke="#ffb46a" stroke-width="2" stroke-opacity="1" stroke-linecap="round" stroke-linejoin="round" stroke-dasharray="none" marker-start="none" marker-end="none" fill="#ffb46a" fill-rule="evenodd" fill-opacity="1" data-name="curve" data-title="curve" deg="0" data-sw="2" data-grad="0" data-group="group43" data-edit="1" filter="url(#filter9)" d="M43.587 41.431 C43.587 39.401 45.3 37.739 47.397 37.739 C49.493 37.739 51.209 39.401 51.209 41.431 C51.209 43.461 49.493 45.123 47.397 45.123 C45.3 45.123 43.587 43.461 43.587 41.431 Z " data-centerx="54.398" data-centery="42.431"></path><path id="path41" visibility="visible" stroke="#ffb46a" stroke-width="2" stroke-opacity="1" stroke-linecap="round" stroke-linejoin="round" stroke-dasharray="none" marker-start="none" marker-end="none" fill="#ffb46a" fill-rule="evenodd" fill-opacity="1" data-name="curve" data-title="curve" deg="0" data-sw="2" data-grad="0" data-group="group43" data-edit="1" filter="url(#filter10)" d="M43.587 57.584 C43.587 55.553 45.3 53.891 47.397 53.891 C49.493 53.891 51.209 55.553 51.209 57.584 C51.209 59.614 49.493 61.275 47.397 61.275 C45.3 61.275 43.587 59.614 43.587 57.584 Z " data-centerx="54.398" data-centery="58.583"></path><path id="path42" visibility="visible" stroke="#666666" stroke-width="0" stroke-opacity="1" stroke-linecap="round" stroke-linejoin="round" stroke-dasharray="none" marker-start="none" marker-end="none" fill="#808080" fill-rule="evenodd" fill-opacity="1" data-name="curve" data-title="curve" deg="0" data-sw="0" data-grad="0" data-group="group43" data-edit="1" filter="url(#filter11)" d="M5.266 21.434 L71.511 21.434 L71.511 31.015 L5.266 31.015 L5.266 21.434 Z " data-centerx="45.388" data-centery="27.225"></path></g></g><g id="settings" visibility="hidden" data-dn0="primalDraw" data-dn1="#FAFAFA" data-dn2="#D2D2D2" data-dn3="18" data-dn4="#ffca82" data-dn5="#B3B3B3" data-dn6="1" data-dn7="1" data-dn8="2" data-dn9="round" data-dn10="round" data-dn11="none" data-dn12="none" data-dn13="none" data-dn14="evenodd" data-dn15="10" data-dn16="1" data-dn17="360" data-dn18="100" data-dn19="10" data-dn20="0" data-dn21="1" data-dn22="1" data-dn23="44" data-dn24="group30,group43" data-dn25="12" data-dn26="url(#linear0)" data-dn27="url(#linear1)" data-dn28="url(#radial0)" data-dn29="url(#radial1)" data-dn30="#FF8000" data-dn31="#FFFF00" data-dn32="#000000" data-dn33="1" data-dn34="12" data-dn35="21" data-dn36="," data-dn37="0" data-dn38="128"></g></svg>