<svg id="exportSVG" visibility="visible" xmlns="http://www.w3.org/2000/svg" xmlns:xlink="http://www.w3.org/1999/xlink" version="1.1" data-info="draw.ninja" data-name="title7" viewBox="0 0 520 120" width="520" height="120" style="position: fixed; top: 0px; left: 0px;"><defs id="defsExport"><filter id="filter0"><feGaussianBlur stdDeviation="0"></feGaussianBlur></filter><pattern id="patternImage" patternUnits="userSpaceOnUse" x="0" y="0" width="1" height="1" data-x="0" data-y="0" data-width="1" data-height="1" data-multx="1" data-multy="1" patternTransform="matrix(1,0,0,1,0,0)" data-transs="0" data-transf="0" data-source="patternImage" data-draw="1" fill="#B3B3B3" fill-opacity="1"></pattern><pattern id="pattern0" patternUnits="userSpaceOnUse" x="0" y="0" width="10" height="10" data-x="0" data-y="0" data-width="10" data-height="10" data-multx="1" data-multy="1" stroke="none" patternTransform="matrix(1,0,0,1,0,0)" data-transs="0" data-transf="0" data-source="Pattern 0" data-draw="1" fill="#B3B3B3" fill-opacity="1"><path transform="matrix(1,0,0,1,0,0)" d="M0 0 L5 0 L5 5 L0 5 L0 0 Z"></path></pattern><pattern id="pattern1" patternUnits="userSpaceOnUse" x="0" y="0" width="10" height="10" data-x="0" data-y="0" data-width="10" data-height="10" data-multx="1" data-multy="1" stroke="none" patternTransform="matrix(1,0,0,1,0,0)" data-transs="0" data-transf="0" data-source="Pattern 1" data-draw="1" fill="#B3B3B3" fill-opacity="1"><path transform="matrix(1,0,0,1,0,0)" d="M0 5 L5 0 L10 5 L5 10 L0 5 Z"></path></pattern><pattern id="pattern2" patternUnits="userSpaceOnUse" x="0" y="0" width="10" height="10" data-x="0" data-y="0" data-width="10" data-height="10" data-multx="1" data-multy="1" stroke="none" patternTransform="matrix(1,0,0,1,0,0)" data-transs="0" data-transf="0" data-source="Pattern 2" data-draw="1" fill="#B3B3B3" fill-opacity="1"><path transform="matrix(1,0,0,1,0,0)" d="M0 9 L5 1 L10 9 L0 9 Z"></path></pattern><pattern id="pattern3" patternUnits="userSpaceOnUse" x="0" y="0" width="10" height="10" data-x="0" data-y="0" data-width="10" data-height="10" data-multx="1" data-multy="1" stroke="none" patternTransform="matrix(1,0,0,1,0,0)" data-transs="0" data-transf="0" data-source="Pattern 3" data-draw="1" fill="#B3B3B3" fill-opacity="1"><path transform="matrix(1,0,0,1,0,0)" d="M0 5 C0 2.25 2.25 0 5 0 C7.75 0 10 2.25 10 5 C10 7.75 7.75 10 5 10 C2.25 10 0 7.75 0 5 Z"></path></pattern><pattern id="pattern4" patternUnits="userSpaceOnUse" x="0" y="0" width="10" height="10" data-x="0" data-y="0" data-width="10" data-height="10" data-multx="1" data-multy="1" stroke="none" patternTransform="matrix(1,0,0,1,0,0)" data-transs="0" data-transf="0" data-source="Pattern 4" data-draw="1" fill="#B3B3B3" fill-opacity="1"><path transform="matrix(1,0,0,1,0,0)" d="M0 5 L4 4 L5 0 L6 4 L10 5 L6 6 L5 10 L4 6 L0 5 Z"></path></pattern><pattern id="pattern5" patternUnits="userSpaceOnUse" x="0" y="0" width="10" height="10" data-x="0" data-y="0" data-width="10" data-height="10" data-multx="1" data-multy="1" stroke="none" patternTransform="matrix(1,0,0,1,0,0)" data-transs="0" data-transf="0" data-source="Pattern 5" data-draw="1" fill="#B3B3B3" fill-opacity="1"><path transform="matrix(1,0,0,1,0,0)" d="M5 10 C-5 2.75 3 -1.75 5 1 C7 -1.75 15 2.75 5 10 Z"></path></pattern><pattern id="pattern6" patternUnits="userSpaceOnUse" x="0" y="0" width="10" height="10" data-x="0" data-y="0" data-width="10" data-height="10" data-multx="1" data-multy="1" stroke="none" patternTransform="matrix(1,0,0,1,0,0)" data-transs="0" data-transf="0" data-source="Pattern 6" data-draw="1" fill="#B3B3B3" fill-opacity="1"><path transform="matrix(1,0,0,1,0,0)" d="M3 0 L7 0 L7 10 L3 10 L3 0 Z"></path></pattern><pattern id="pattern7" patternUnits="userSpaceOnUse" x="0" y="0" width="10" height="10" data-x="0" data-y="0" data-width="10" data-height="10" data-multx="1" data-multy="1" stroke="none" patternTransform="matrix(1,0,0,1,0,0)" data-transs="0" data-transf="0" data-source="Pattern 7" data-draw="1" fill="#B3B3B3" fill-opacity="1"><path transform="matrix(1,0,0,1,0,0)" d="M10 3 L10 7 L0 7 L0 3 L10 3 Z"></path></pattern><pattern id="pattern8" patternUnits="userSpaceOnUse" x="0" y="0" width="10" height="10" data-x="0" data-y="0" data-width="10" data-height="10" data-multx="1" data-multy="1" stroke="none" patternTransform="matrix(1,0,0,1,0,0)" data-transs="0" data-transf="0" data-source="Pattern 8" data-draw="1" fill="#B3B3B3" fill-opacity="1"><path transform="matrix(1,0,0,1,0,0)" d="M0 10 L3 3 L10 0 L7 7 L0 10 Z"></path></pattern><pattern id="pattern9" patternUnits="userSpaceOnUse" x="0" y="0" width="10" height="10" data-x="0" data-y="0" data-width="10" data-height="10" data-multx="1" data-multy="1" stroke="none" patternTransform="matrix(1,0,0,1,0,0)" data-transs="0" data-transf="0" data-source="Pattern 9" data-draw="1" fill="#B3B3B3" fill-opacity="1"><path transform="matrix(1,0,0,1,0,0)" d="M0 4 L10 4 L10 6 L0 6 L0 4 Z M4 10 L4 0 L6 0 L6 10 L4 10 Z"></path></pattern><linearGradient id="linearSystem" gradientUnits="objectBoundingBox" x1="0%" y1="50%" x2="100%" y2="50%" spreadMethod="pad"><stop offset="50%" stop-color="#D0D0D0" stop-opacity="1"></stop><stop offset="100%" stop-color="transparent" stop-opacity="1"></stop></linearGradient><linearGradient id="linearSystem1" gradientUnits="objectBoundingBox" x1="0%" y1="50%" x2="100%" y2="50%" spreadMethod="pad"><stop offset="30%" stop-color="#D0D0D0" stop-opacity="1"></stop><stop offset="100%" stop-color="transparent" stop-opacity="1"></stop></linearGradient><linearGradient id="linearSystem2" gradientUnits="objectBoundingBox" x1="0%" y1="50%" x2="50%" y2="50%" spreadMethod="repeat"><stop offset="30%" stop-color="#D0D0D0" stop-opacity="1"></stop><stop offset="100%" stop-color="transparent" stop-opacity="1"></stop></linearGradient><linearGradient id="linearSystem3" gradientUnits="objectBoundingBox" x1="0%" y1="50%" x2="50%" y2="50%" spreadMethod="reflect"><stop offset="30%" stop-color="#D0D0D0" stop-opacity="1"></stop><stop offset="100%" stop-color="transparent" stop-opacity="1"></stop></linearGradient><radialGradient id="radialSystem" gradientUnits="objectBoundingBox" r="0.5" cx="0.5" fx="0.5" cy="0.5" fy="0.5" spreadMethod="pad"><stop offset="50%" stop-color="#D0D0D0" stop-opacity="1"></stop><stop offset="100%" stop-color="transparent" stop-opacity="1"></stop></radialGradient><pattern id="patternSystem" patternUnits="userSpaceOnUse" x="0" y="0" width="6" height="8"><path stroke="#D0D0D0" stroke-width="5" fill="none" d="M0 0 L0 10"></path></pattern><linearGradient id="linear0" gradientUnits="objectBoundingBox" x1="0%" y1="50%" x2="100%" y2="50%" spreadMethod="pad"><stop offset="0%" stop-color="#FF8000" stop-opacity="1"></stop><stop offset="100%" stop-color="#FFFF00" stop-opacity="1"></stop></linearGradient><linearGradient id="linear1" gradientUnits="objectBoundingBox" x1="0%" y1="50%" x2="100%" y2="50%" spreadMethod="pad"><stop offset="0%" stop-color="#FFFF00" stop-opacity="1"></stop><stop offset="100%" stop-color="#FF8000" stop-opacity="1"></stop></linearGradient><linearGradient id="linearImport" gradientUnits="objectBoundingBox" x1="0%" y1="50%" x2="100%" y2="50%" spreadMethod="pad"><stop offset="0%" stop-color="#FFFFFF" stop-opacity="0.1"></stop><stop offset="100%" stop-color="#000000" stop-opacity="0.1"></stop></linearGradient><radialGradient id="radial0" gradientUnits="objectBoundingBox" r="0.5" cx="0.5" fx="0.5" cy="0.5" fy="0.5" spreadMethod="pad"><stop offset="0%" stop-color="#FF8000" stop-opacity="1"></stop><stop offset="100%" stop-color="#FFFF00" stop-opacity="1"></stop></radialGradient><radialGradient id="radial1" gradientUnits="objectBoundingBox" r="0.5" cx="0.5" fx="0.5" cy="0.5" fy="0.5" spreadMethod="pad"><stop offset="0%" stop-color="#FFFF00" stop-opacity="1"></stop><stop offset="100%" stop-color="#FF8000" stop-opacity="1"></stop></radialGradient><radialGradient id="radialImport" gradientUnits="objectBoundingBox" r="0.5" cx="0.5" fx="0.5" cy="0.5" fy="0.5" spreadMethod="pad"><stop offset="0%" stop-color="#FFFFFF" stop-opacity="0.1"></stop><stop offset="100%" stop-color="#000000" stop-opacity="0.1"></stop></radialGradient><linearGradient id="linear2" gradientUnits="objectBoundingBox" x1="0.03%" y1="51.59%" x2="100%" y2="50%" spreadMethod="pad"><stop offset="0%" stop-color="#CCCCCC" stop-opacity="1"></stop><stop offset="100%" stop-color="#999999" stop-opacity="1"></stop></linearGradient><linearGradient id="linear3" gradientUnits="objectBoundingBox" x1="19.17%" y1="45%" x2="81.67%" y2="49.17%" spreadMethod="pad"><stop offset="0%" stop-color="#333333" stop-opacity="1"></stop><stop offset="100%" stop-color="#E6E6E6" stop-opacity="1"></stop></linearGradient></defs><rect id="pageExport" x="0" y="0" width="520" height="120" fill="none" fill-opacity="0" stroke="none" stroke-width="0"></rect><g id="objectsExport" visibility="visible"><g id="group239" visibility="visible" stroke="#ffca82" stroke-width="0" stroke-opacity="1" stroke-dasharray="none" fill="none" fill-opacity="1" data-name="group" data-title="group" deg="0" data-edit="1" data-centerx="60.502" data-centery="60.499"><g id="group235" visibility="visible" stroke="#ffca82" stroke-width="NaN" stroke-opacity="1" stroke-dasharray="none" fill="none" fill-opacity="1" data-name="group" data-title="group" deg="0" data-edit="1" data-centerx="-2201.5" data-centery="-1421.5"><path id="path133" visibility="visible" stroke="#000000" stroke-width="5" stroke-opacity="1" stroke-linecap="round" stroke-linejoin="round" stroke-dasharray="none" marker-start="none" marker-end="none" fill="#FFFFFF" fill-rule="evenodd" fill-opacity="1" data-name="curve" data-title="curve" deg="0" data-sw="5" data-grad="0" data-group="group239" data-edit="1" filter="none" d="M6 31 L115 31 L115 108 L6 108 L6 31 Z " data-centerx="-2137.56" data-centery="-1458.605"></path><g id="group234" visibility="visible" stroke="#ffca82" stroke-width="0" stroke-opacity="1" stroke-dasharray="none" fill="none" fill-opacity="1" data-name="group" data-title="group" deg="0" data-edit="1" data-centerx="-2137" data-centery="-1440.5" data-group="group239"><g id="group214" visibility="visible" stroke="#ffca82" stroke-width="0" stroke-opacity="1" stroke-dasharray="none" fill="none" fill-opacity="1" data-name="group" data-title="group" deg="0" data-edit="1" data-centerx="-2136" data-centery="-1381.5" data-group="group239"><path id="path168" visibility="visible" stroke="#ffca82" stroke-width="0" stroke-opacity="1" stroke-linecap="round" stroke-linejoin="round" stroke-dasharray="none" marker-start="none" marker-end="none" fill="#FF8040" fill-rule="evenodd" fill-opacity="1" data-name="curve" data-title="curve" deg="0" data-sw="0" data-grad="0" data-group="group239" data-edit="1" filter="none" d="M10.888 55.8 C10.888 53.332 12.977 51.312 15.531 51.312 C18.085 51.312 20.175 53.332 20.175 55.8 C20.175 58.269 18.085 60.288 15.531 60.288 C12.977 60.288 10.888 58.269 10.888 55.8 Z " data-centerx="-2160.534" data-centery="-1435.459"></path><path id="path169" visibility="visible" stroke="#ffca82" stroke-width="0" stroke-opacity="1" stroke-linecap="round" stroke-linejoin="round" stroke-dasharray="none" marker-start="none" marker-end="none" fill="#CCCCCC" fill-rule="evenodd" fill-opacity="1" data-name="curve" data-title="curve" deg="0" data-sw="0" data-grad="0" data-group="group239" data-edit="1" filter="none" d="M26.04 55.8 C26.04 53.332 28.13 51.312 30.684 51.312 C33.237 51.312 35.327 53.332 35.327 55.8 C35.327 58.269 33.237 60.288 30.684 60.288 C28.13 60.288 26.04 58.269 26.04 55.8 Z " data-centerx="-2145.38" data-centery="-1435.459"></path><path id="path170" visibility="visible" stroke="#ffca82" stroke-width="0" stroke-opacity="1" stroke-linecap="round" stroke-linejoin="round" stroke-dasharray="none" marker-start="none" marker-end="none" fill="#CCCCCC" fill-rule="evenodd" fill-opacity="1" data-name="curve" data-title="curve" deg="0" data-sw="0" data-grad="0" data-group="group239" data-edit="1" filter="none" d="M40.704 55.8 C40.704 53.332 42.794 51.312 45.348 51.312 C47.901 51.312 49.991 53.332 49.991 55.8 C49.991 58.269 47.901 60.288 45.348 60.288 C42.794 60.288 40.704 58.269 40.704 55.8 Z " data-centerx="-2130.717" data-centery="-1435.459"></path><path id="path171" visibility="visible" stroke="#ffca82" stroke-width="0" stroke-opacity="1" stroke-linecap="round" stroke-linejoin="round" stroke-dasharray="none" marker-start="none" marker-end="none" fill="#CCCCCC" fill-rule="evenodd" fill-opacity="1" data-name="curve" data-title="curve" deg="0" data-sw="0" data-grad="0" data-group="group239" data-edit="1" filter="none" d="M55.368 55.8 C55.368 53.332 57.457 51.312 60.012 51.312 C62.565 51.312 64.655 53.332 64.655 55.8 C64.655 58.269 62.565 60.288 60.012 60.288 C57.457 60.288 55.368 58.269 55.368 55.8 Z " data-centerx="-2116.053" data-centery="-1435.459"></path><path id="path172" visibility="visible" stroke="#ffca82" stroke-width="0" stroke-opacity="1" stroke-linecap="round" stroke-linejoin="round" stroke-dasharray="none" marker-start="none" marker-end="none" fill="#CCCCCC" fill-rule="evenodd" fill-opacity="1" data-name="curve" data-title="curve" deg="0" data-sw="0" data-grad="0" data-group="group239" data-edit="1" filter="none" d="M70.031 55.8 C70.031 53.332 72.121 51.312 74.675 51.312 C77.228 51.312 79.318 53.332 79.318 55.8 C79.318 58.269 77.228 60.288 74.675 60.288 C72.121 60.288 70.031 58.269 70.031 55.8 Z " data-centerx="-2101.39" data-centery="-1435.459"></path><path id="path173" visibility="visible" stroke="#ffca82" stroke-width="0" stroke-opacity="1" stroke-linecap="round" stroke-linejoin="round" stroke-dasharray="none" marker-start="none" marker-end="none" fill="#CCCCCC" fill-rule="evenodd" fill-opacity="1" data-name="curve" data-title="curve" deg="0" data-sw="0" data-grad="0" data-group="group239" data-edit="1" filter="none" d="M84.206 55.8 C84.206 53.332 86.296 51.312 88.849 51.312 C91.404 51.312 93.493 53.332 93.493 55.8 C93.493 58.269 91.404 60.288 88.849 60.288 C86.296 60.288 84.206 58.269 84.206 55.8 Z " data-centerx="-2087.214" data-centery="-1435.459"></path><path id="path174" visibility="visible" stroke="#ffca82" stroke-width="0" stroke-opacity="1" stroke-linecap="round" stroke-linejoin="round" stroke-dasharray="none" marker-start="none" marker-end="none" fill="#0080FF" fill-rule="evenodd" fill-opacity="1" data-name="curve" data-title="curve" deg="0" data-sw="0" data-grad="0" data-group="group239" data-edit="1" filter="none" d="M99.358 55.8 C99.358 53.332 101.448 51.312 104.003 51.312 C106.556 51.312 108.646 53.332 108.646 55.8 C108.646 58.269 106.556 60.288 104.003 60.288 C101.448 60.288 99.358 58.269 99.358 55.8 Z " data-centerx="-2072.062" data-centery="-1435.459"></path></g><g id="group215" visibility="visible" stroke="#ffca82" stroke-width="0" stroke-opacity="1" stroke-dasharray="none" fill="none" fill-opacity="1" data-name="group" data-title="group" deg="0" data-edit="1" data-centerx="-2136" data-centery="-1351.5" data-group="group239"><path id="path176" visibility="visible" stroke="#ffca82" stroke-width="0" stroke-opacity="1" stroke-linecap="round" stroke-linejoin="round" stroke-dasharray="none" marker-start="none" marker-end="none" fill="#FF8040" fill-rule="evenodd" fill-opacity="1" data-name="curve" data-title="curve" deg="0" data-sw="0" data-grad="0" data-group="group239" data-edit="1" filter="none" d="M10.888 69.973 C10.888 67.504 12.977 65.484 15.531 65.484 C18.085 65.484 20.175 67.504 20.175 69.973 C20.175 72.441 18.085 74.461 15.531 74.461 C12.977 74.461 10.888 72.441 10.888 69.973 Z " data-centerx="-2160.534" data-centery="-1435.459"></path><path id="path177" visibility="visible" stroke="#ffca82" stroke-width="0" stroke-opacity="1" stroke-linecap="round" stroke-linejoin="round" stroke-dasharray="none" marker-start="none" marker-end="none" fill="#CCCCCC" fill-rule="evenodd" fill-opacity="1" data-name="curve" data-title="curve" deg="0" data-sw="0" data-grad="0" data-group="group239" data-edit="1" filter="none" d="M26.04 69.973 C26.04 67.504 28.13 65.484 30.684 65.484 C33.237 65.484 35.327 67.504 35.327 69.973 C35.327 72.441 33.237 74.461 30.684 74.461 C28.13 74.461 26.04 72.441 26.04 69.973 Z " data-centerx="-2145.38" data-centery="-1435.459"></path><path id="path178" visibility="visible" stroke="#ffca82" stroke-width="0" stroke-opacity="1" stroke-linecap="round" stroke-linejoin="round" stroke-dasharray="none" marker-start="none" marker-end="none" fill="#CCCCCC" fill-rule="evenodd" fill-opacity="1" data-name="curve" data-title="curve" deg="0" data-sw="0" data-grad="0" data-group="group239" data-edit="1" filter="none" d="M40.704 69.973 C40.704 67.504 42.794 65.484 45.348 65.484 C47.901 65.484 49.991 67.504 49.991 69.973 C49.991 72.441 47.901 74.461 45.348 74.461 C42.794 74.461 40.704 72.441 40.704 69.973 Z " data-centerx="-2130.717" data-centery="-1435.459"></path><path id="path179" visibility="visible" stroke="#ffca82" stroke-width="0" stroke-opacity="1" stroke-linecap="round" stroke-linejoin="round" stroke-dasharray="none" marker-start="none" marker-end="none" fill="#CCCCCC" fill-rule="evenodd" fill-opacity="1" data-name="curve" data-title="curve" deg="0" data-sw="0" data-grad="0" data-group="group239" data-edit="1" filter="none" d="M55.368 69.973 C55.368 67.504 57.457 65.484 60.012 65.484 C62.565 65.484 64.655 67.504 64.655 69.973 C64.655 72.441 62.565 74.461 60.012 74.461 C57.457 74.461 55.368 72.441 55.368 69.973 Z " data-centerx="-2116.053" data-centery="-1435.459"></path><path id="path180" visibility="visible" stroke="#ffca82" stroke-width="0" stroke-opacity="1" stroke-linecap="round" stroke-linejoin="round" stroke-dasharray="none" marker-start="none" marker-end="none" fill="#CCCCCC" fill-rule="evenodd" fill-opacity="1" data-name="curve" data-title="curve" deg="0" data-sw="0" data-grad="0" data-group="group239" data-edit="1" filter="none" d="M70.031 69.973 C70.031 67.504 72.121 65.484 74.675 65.484 C77.228 65.484 79.318 67.504 79.318 69.973 C79.318 72.441 77.228 74.461 74.675 74.461 C72.121 74.461 70.031 72.441 70.031 69.973 Z " data-centerx="-2101.39" data-centery="-1435.459"></path><path id="path181" visibility="visible" stroke="#ffca82" stroke-width="0" stroke-opacity="1" stroke-linecap="round" stroke-linejoin="round" stroke-dasharray="none" marker-start="none" marker-end="none" fill="#CCCCCC" fill-rule="evenodd" fill-opacity="1" data-name="curve" data-title="curve" deg="0" data-sw="0" data-grad="0" data-group="group239" data-edit="1" filter="none" d="M84.206 69.973 C84.206 67.504 86.296 65.484 88.849 65.484 C91.404 65.484 93.493 67.504 93.493 69.973 C93.493 72.441 91.404 74.461 88.849 74.461 C86.296 74.461 84.206 72.441 84.206 69.973 Z " data-centerx="-2087.214" data-centery="-1435.459"></path><path id="path182" visibility="visible" stroke="#ffca82" stroke-width="0" stroke-opacity="1" stroke-linecap="round" stroke-linejoin="round" stroke-dasharray="none" marker-start="none" marker-end="none" fill="#0080FF" fill-rule="evenodd" fill-opacity="1" data-name="curve" data-title="curve" deg="0" data-sw="0" data-grad="0" data-group="group239" data-edit="1" filter="none" d="M99.358 69.973 C99.358 67.504 101.448 65.484 104.003 65.484 C106.556 65.484 108.646 67.504 108.646 69.973 C108.646 72.441 106.556 74.461 104.003 74.461 C101.448 74.461 99.358 72.441 99.358 69.973 Z " data-centerx="-2072.062" data-centery="-1435.459"></path></g><path id="path217" visibility="visible" stroke="#ffca82" stroke-width="0" stroke-opacity="1" stroke-linecap="round" stroke-linejoin="round" stroke-dasharray="none" marker-start="none" marker-end="none" fill="#CCCCCC" fill-rule="evenodd" fill-opacity="1" data-name="curve" data-title="curve" deg="0" data-sw="0" data-grad="0" data-group="group239" data-edit="1" filter="none" d="M26.04 41.629 C26.04 39.161 28.13 37.141 30.684 37.141 C33.237 37.141 35.327 39.161 35.327 41.629 C35.327 44.097 33.237 46.117 30.684 46.117 C28.13 46.117 26.04 44.097 26.04 41.629 Z " data-centerx="-2166.887" data-centery="-1444.434"></path><path id="path218" visibility="visible" stroke="#ffca82" stroke-width="0" stroke-opacity="1" stroke-linecap="round" stroke-linejoin="round" stroke-dasharray="none" marker-start="none" marker-end="none" fill="#CCCCCC" fill-rule="evenodd" fill-opacity="1" data-name="curve" data-title="curve" deg="0" data-sw="0" data-grad="0" data-group="group239" data-edit="1" filter="none" d="M40.704 41.629 C40.704 39.161 42.794 37.141 45.348 37.141 C47.901 37.141 49.991 39.161 49.991 41.629 C49.991 44.097 47.901 46.117 45.348 46.117 C42.794 46.117 40.704 44.097 40.704 41.629 Z " data-centerx="-2152.223" data-centery="-1444.434"></path><path id="path219" visibility="visible" stroke="#ffca82" stroke-width="0" stroke-opacity="1" stroke-linecap="round" stroke-linejoin="round" stroke-dasharray="none" marker-start="none" marker-end="none" fill="#CCCCCC" fill-rule="evenodd" fill-opacity="1" data-name="curve" data-title="curve" deg="0" data-sw="0" data-grad="0" data-group="group239" data-edit="1" filter="none" d="M55.368 41.629 C55.368 39.161 57.457 37.141 60.012 37.141 C62.565 37.141 64.655 39.161 64.655 41.629 C64.655 44.097 62.565 46.117 60.012 46.117 C57.457 46.117 55.368 44.097 55.368 41.629 Z " data-centerx="-2137.56" data-centery="-1444.434"></path><path id="path220" visibility="visible" stroke="#ffca82" stroke-width="0" stroke-opacity="1" stroke-linecap="round" stroke-linejoin="round" stroke-dasharray="none" marker-start="none" marker-end="none" fill="#CCCCCC" fill-rule="evenodd" fill-opacity="1" data-name="curve" data-title="curve" deg="0" data-sw="0" data-grad="0" data-group="group239" data-edit="1" filter="none" d="M70.031 41.629 C70.031 39.161 72.121 37.141 74.675 37.141 C77.228 37.141 79.318 39.161 79.318 41.629 C79.318 44.097 77.228 46.117 74.675 46.117 C72.121 46.117 70.031 44.097 70.031 41.629 Z " data-centerx="-2122.896" data-centery="-1444.434"></path><path id="path221" visibility="visible" stroke="#ffca82" stroke-width="0" stroke-opacity="1" stroke-linecap="round" stroke-linejoin="round" stroke-dasharray="none" marker-start="none" marker-end="none" fill="#CCCCCC" fill-rule="evenodd" fill-opacity="1" data-name="curve" data-title="curve" deg="0" data-sw="0" data-grad="0" data-group="group239" data-edit="1" filter="none" d="M84.206 41.629 C84.206 39.161 86.296 37.141 88.849 37.141 C91.404 37.141 93.493 39.161 93.493 41.629 C93.493 44.097 91.404 46.117 88.849 46.117 C86.296 46.117 84.206 44.097 84.206 41.629 Z " data-centerx="-2108.722" data-centery="-1444.434"></path><path id="path222" visibility="visible" stroke="#ffca82" stroke-width="0" stroke-opacity="1" stroke-linecap="round" stroke-linejoin="round" stroke-dasharray="none" marker-start="none" marker-end="none" fill="#0080FF" fill-rule="evenodd" fill-opacity="1" data-name="curve" data-title="curve" deg="0" data-sw="0" data-grad="0" data-group="group239" data-edit="1" filter="none" d="M99.358 41.629 C99.358 39.161 101.448 37.141 104.003 37.141 C106.556 37.141 108.646 39.161 108.646 41.629 C108.646 44.097 106.556 46.117 104.003 46.117 C101.448 46.117 99.358 44.097 99.358 41.629 Z " data-centerx="-2093.569" data-centery="-1444.434"></path><path id="path223" visibility="visible" stroke="#ffca82" stroke-width="0" stroke-opacity="1" stroke-linecap="round" stroke-linejoin="round" stroke-dasharray="none" marker-start="none" marker-end="none" fill="#FF8040" fill-rule="evenodd" fill-opacity="1" data-name="curve" data-title="curve" deg="0" data-sw="0" data-grad="0" data-group="group239" data-edit="1" filter="none" d="M10.888 98.316 C10.888 95.848 12.977 93.828 15.531 93.828 C18.085 93.828 20.175 95.848 20.175 98.316 C20.175 100.784 18.085 102.803 15.531 102.803 C12.977 102.803 10.888 100.784 10.888 98.316 Z " data-centerx="-2182.04" data-centery="-1387.746"></path><path id="path224" visibility="visible" stroke="#ffca82" stroke-width="0" stroke-opacity="1" stroke-linecap="round" stroke-linejoin="round" stroke-dasharray="none" marker-start="none" marker-end="none" fill="#CCCCCC" fill-rule="evenodd" fill-opacity="1" data-name="curve" data-title="curve" deg="0" data-sw="0" data-grad="0" data-group="group239" data-edit="1" filter="none" d="M26.04 98.316 C26.04 95.848 28.13 93.828 30.684 93.828 C33.237 93.828 35.327 95.848 35.327 98.316 C35.327 100.784 33.237 102.803 30.684 102.803 C28.13 102.803 26.04 100.784 26.04 98.316 Z " data-centerx="-2166.887" data-centery="-1387.746"></path><path id="path225" visibility="visible" stroke="#ffca82" stroke-width="0" stroke-opacity="1" stroke-linecap="round" stroke-linejoin="round" stroke-dasharray="none" marker-start="none" marker-end="none" fill="#CCCCCC" fill-rule="evenodd" fill-opacity="1" data-name="curve" data-title="curve" deg="0" data-sw="0" data-grad="0" data-group="group239" data-edit="1" filter="none" d="M40.704 98.316 C40.704 95.848 42.794 93.828 45.348 93.828 C47.901 93.828 49.991 95.848 49.991 98.316 C49.991 100.784 47.901 102.803 45.348 102.803 C42.794 102.803 40.704 100.784 40.704 98.316 Z " data-centerx="-2152.223" data-centery="-1387.746"></path><path id="path226" visibility="visible" stroke="#ffca82" stroke-width="0" stroke-opacity="1" stroke-linecap="round" stroke-linejoin="round" stroke-dasharray="none" marker-start="none" marker-end="none" fill="#CCCCCC" fill-rule="evenodd" fill-opacity="1" data-name="curve" data-title="curve" deg="0" data-sw="0" data-grad="0" data-group="group239" data-edit="1" filter="none" d="M55.368 98.316 C55.368 95.848 57.457 93.828 60.012 93.828 C62.565 93.828 64.655 95.848 64.655 98.316 C64.655 100.784 62.565 102.803 60.012 102.803 C57.457 102.803 55.368 100.784 55.368 98.316 Z " data-centerx="-2137.56" data-centery="-1387.746"></path><path id="path227" visibility="visible" stroke="#ffca82" stroke-width="0" stroke-opacity="1" stroke-linecap="round" stroke-linejoin="round" stroke-dasharray="none" marker-start="none" marker-end="none" fill="#FF8040" fill-rule="evenodd" fill-opacity="1" data-name="curve" data-title="curve" deg="0" data-sw="0" data-grad="0" data-group="group239" data-edit="1" filter="none" d="M10.888 84.145 C10.888 81.677 12.977 79.657 15.531 79.657 C18.085 79.657 20.175 81.677 20.175 84.145 C20.175 86.613 18.085 88.633 15.531 88.633 C12.977 88.633 10.888 86.613 10.888 84.145 Z " data-centerx="-2182.04" data-centery="-1401.919"></path><path id="path228" visibility="visible" stroke="#ffca82" stroke-width="0" stroke-opacity="1" stroke-linecap="round" stroke-linejoin="round" stroke-dasharray="none" marker-start="none" marker-end="none" fill="#FF8040" fill-rule="evenodd" fill-opacity="1" data-name="curve" data-title="curve" deg="0" data-sw="0" data-grad="0" data-group="group239" data-edit="1" filter="none" d="M26.04 84.145 C26.04 81.677 28.13 79.657 30.684 79.657 C33.237 79.657 35.327 81.677 35.327 84.145 C35.327 86.613 33.237 88.633 30.684 88.633 C28.13 88.633 26.04 86.613 26.04 84.145 Z " data-centerx="-2166.887" data-centery="-1401.919"></path><path id="path229" visibility="visible" stroke="#ffca82" stroke-width="0" stroke-opacity="1" stroke-linecap="round" stroke-linejoin="round" stroke-dasharray="none" marker-start="none" marker-end="none" fill="#CCCCCC" fill-rule="evenodd" fill-opacity="1" data-name="curve" data-title="curve" deg="0" data-sw="0" data-grad="0" data-group="group239" data-edit="1" filter="none" d="M40.704 84.145 C40.704 81.677 42.794 79.657 45.348 79.657 C47.901 79.657 49.991 81.677 49.991 84.145 C49.991 86.613 47.901 88.633 45.348 88.633 C42.794 88.633 40.704 86.613 40.704 84.145 Z " data-centerx="-2152.223" data-centery="-1401.919"></path><path id="path230" visibility="visible" stroke="#ffca82" stroke-width="0" stroke-opacity="1" stroke-linecap="round" stroke-linejoin="round" stroke-dasharray="none" marker-start="none" marker-end="none" fill="#CCCCCC" fill-rule="evenodd" fill-opacity="1" data-name="curve" data-title="curve" deg="0" data-sw="0" data-grad="0" data-group="group239" data-edit="1" filter="none" d="M55.368 84.145 C55.368 81.677 57.457 79.657 60.012 79.657 C62.565 79.657 64.655 81.677 64.655 84.145 C64.655 86.613 62.565 88.633 60.012 88.633 C57.457 88.633 55.368 86.613 55.368 84.145 Z " data-centerx="-2137.56" data-centery="-1401.919"></path><path id="path231" visibility="visible" stroke="#ffca82" stroke-width="0" stroke-opacity="1" stroke-linecap="round" stroke-linejoin="round" stroke-dasharray="none" marker-start="none" marker-end="none" fill="#CCCCCC" fill-rule="evenodd" fill-opacity="1" data-name="curve" data-title="curve" deg="0" data-sw="0" data-grad="0" data-group="group239" data-edit="1" filter="none" d="M70.031 84.145 C70.031 81.677 72.121 79.657 74.675 79.657 C77.228 79.657 79.318 81.677 79.318 84.145 C79.318 86.613 77.228 88.633 74.675 88.633 C72.121 88.633 70.031 86.613 70.031 84.145 Z " data-centerx="-2122.896" data-centery="-1401.919"></path><path id="path232" visibility="visible" stroke="#ffca82" stroke-width="0" stroke-opacity="1" stroke-linecap="round" stroke-linejoin="round" stroke-dasharray="none" marker-start="none" marker-end="none" fill="#CCCCCC" fill-rule="evenodd" fill-opacity="1" data-name="curve" data-title="curve" deg="0" data-sw="0" data-grad="0" data-group="group239" data-edit="1" filter="none" d="M84.206 84.145 C84.206 81.677 86.296 79.657 88.849 79.657 C91.404 79.657 93.493 81.677 93.493 84.145 C93.493 86.613 91.404 88.633 88.849 88.633 C86.296 88.633 84.206 86.613 84.206 84.145 Z " data-centerx="-2108.722" data-centery="-1401.919"></path><path id="path233" visibility="visible" stroke="#ffca82" stroke-width="0" stroke-opacity="1" stroke-linecap="round" stroke-linejoin="round" stroke-dasharray="none" marker-start="none" marker-end="none" fill="#0080FF" fill-rule="evenodd" fill-opacity="1" data-name="curve" data-title="curve" deg="0" data-sw="0" data-grad="0" data-group="group239" data-edit="1" filter="none" d="M99.358 84.145 C99.358 81.677 101.448 79.657 104.003 79.657 C106.556 79.657 108.646 81.677 108.646 84.145 C108.646 86.613 106.556 88.633 104.003 88.633 C101.448 88.633 99.358 86.613 99.358 84.145 Z " data-centerx="-2093.569" data-centery="-1401.919"></path></g></g><path id="path238" visibility="visible" stroke="#000000" stroke-width="5" stroke-opacity="1" stroke-linecap="round" stroke-linejoin="round" stroke-dasharray="none" marker-start="none" marker-end="none" fill="#999999" fill-rule="evenodd" fill-opacity="1" data-name="curve" data-title="curve" deg="0" data-sw="5" data-grad="0" data-group="group239" data-edit="1" filter="none" d="M6 13 L115 13 L115 31 L6 31 L6 13 Z " data-centerx="-2201.5" data-centery="-1469"></path></g><g id="group240" visibility="visible" stroke="#ffca82" stroke-width="NaN" stroke-opacity="1" stroke-dasharray="none" fill="none" fill-opacity="1" data-name="group" data-title="text" deg="0" data-edit="1" data-centerx="316.61" data-centery="65.65"><text id="text241" visibility="visible" font-family="Times New Roman" font-size="18" font-weight="normal" font-style="normal" transform="matrix(2.416,0,0,3.513,-1541.571,-1110.879)" stroke="none" stroke-width="0" stroke-opacity="1" stroke-dasharray="none" fill="#FFFFFF" fill-opacity="1" data-name="text" data-title="text" deg="0" data-sw="0" data-group="group240" data-trans="translate(-420,-310) matrix(2.416,0,0,3.513,-1121.571,-800.879)" data-edit="1" filter="none" x="691" y="341" data-centerx="-67.388" data-centery="-257.35">シルバーカレンダー</text></g></g><g id="settings" visibility="hidden" data-dn0="primalDraw" data-dn1="#FFFFFF" data-dn2="#D2D2D2" data-dn3="18" data-dn4="#ffca82" data-dn5="#000000" data-dn6="1" data-dn7="1" data-dn8="0" data-dn9="round" data-dn10="round" data-dn11="none" data-dn12="none" data-dn13="none" data-dn14="evenodd" data-dn15="10" data-dn16="1" data-dn17="520" data-dn18="120" data-dn19="10" data-dn20="0" data-dn21="1" data-dn22="1" data-dn23="242" data-dn24="group239,group240" data-dn25="4" data-dn26="url(#linear0)" data-dn27="url(#linear1)" data-dn28="url(#radial0)" data-dn29="url(#radial1)" data-dn30="#FF8000" data-dn31="#FFFF00" data-dn32="#000000" data-dn33="1" data-dn34="1" data-dn35="10" data-dn36="," data-dn37="0" data-dn38="108"></g></svg>