<svg id="exportSVG" visibility="visible" xmlns="http://www.w3.org/2000/svg" xmlns:xlink="http://www.w3.org/1999/xlink" version="1.1" data-info="draw.ninja" data-name="titlelogo3" viewBox="0 0 380 120" width="380" height="120" style="position: fixed; top: 0px; left: 0px;"><defs id="defsExport"><filter id="filter0"><feGaussianBlur stdDeviation="0"></feGaussianBlur></filter><pattern id="patternImage" patternUnits="userSpaceOnUse" x="0" y="0" width="1" height="1" data-x="0" data-y="0" data-width="1" data-height="1" data-multx="1" data-multy="1" patternTransform="matrix(1,0,0,1,0,0)" data-transs="0" data-transf="0" data-source="patternImage" data-draw="1" fill="#B3B3B3" fill-opacity="1"></pattern><pattern id="pattern0" patternUnits="userSpaceOnUse" x="0" y="0" width="10" height="10" data-x="0" data-y="0" data-width="10" data-height="10" data-multx="1" data-multy="1" stroke="none" patternTransform="matrix(1,0,0,1,0,0)" data-transs="0" data-transf="0" data-source="Pattern 0" data-draw="1" fill="#B3B3B3" fill-opacity="1"><path transform="matrix(1,0,0,1,0,0)" d="M0 0 L5 0 L5 5 L0 5 L0 0 Z"></path></pattern><pattern id="pattern1" patternUnits="userSpaceOnUse" x="0" y="0" width="10" height="10" data-x="0" data-y="0" data-width="10" data-height="10" data-multx="1" data-multy="1" stroke="none" patternTransform="matrix(1,0,0,1,0,0)" data-transs="0" data-transf="0" data-source="Pattern 1" data-draw="1" fill="#B3B3B3" fill-opacity="1"><path transform="matrix(1,0,0,1,0,0)" d="M0 5 L5 0 L10 5 L5 10 L0 5 Z"></path></pattern><pattern id="pattern2" patternUnits="userSpaceOnUse" x="0" y="0" width="10" height="10" data-x="0" data-y="0" data-width="10" data-height="10" data-multx="1" data-multy="1" stroke="none" patternTransform="matrix(1,0,0,1,0,0)" data-transs="0" data-transf="0" data-source="Pattern 2" data-draw="1" fill="#B3B3B3" fill-opacity="1"><path transform="matrix(1,0,0,1,0,0)" d="M0 9 L5 1 L10 9 L0 9 Z"></path></pattern><pattern id="pattern3" patternUnits="userSpaceOnUse" x="0" y="0" width="10" height="10" data-x="0" data-y="0" data-width="10" data-height="10" data-multx="1" data-multy="1" stroke="none" patternTransform="matrix(1,0,0,1,0,0)" data-transs="0" data-transf="0" data-source="Pattern 3" data-draw="1" fill="#B3B3B3" fill-opacity="1"><path transform="matrix(1,0,0,1,0,0)" d="M0 5 C0 2.25 2.25 0 5 0 C7.75 0 10 2.25 10 5 C10 7.75 7.75 10 5 10 C2.25 10 0 7.75 0 5 Z"></path></pattern><pattern id="pattern4" patternUnits="userSpaceOnUse" x="0" y="0" width="10" height="10" data-x="0" data-y="0" data-width="10" data-height="10" data-multx="1" data-multy="1" stroke="none" patternTransform="matrix(1,0,0,1,0,0)" data-transs="0" data-transf="0" data-source="Pattern 4" data-draw="1" fill="#B3B3B3" fill-opacity="1"><path transform="matrix(1,0,0,1,0,0)" d="M0 5 L4 4 L5 0 L6 4 L10 5 L6 6 L5 10 L4 6 L0 5 Z"></path></pattern><pattern id="pattern5" patternUnits="userSpaceOnUse" x="0" y="0" width="10" height="10" data-x="0" data-y="0" data-width="10" data-height="10" data-multx="1" data-multy="1" stroke="none" patternTransform="matrix(1,0,0,1,0,0)" data-transs="0" data-transf="0" data-source="Pattern 5" data-draw="1" fill="#B3B3B3" fill-opacity="1"><path transform="matrix(1,0,0,1,0,0)" d="M5 10 C-5 2.75 3 -1.75 5 1 C7 -1.75 15 2.75 5 10 Z"></path></pattern><pattern id="pattern6" patternUnits="userSpaceOnUse" x="0" y="0" width="10" height="10" data-x="0" data-y="0" data-width="10" data-height="10" data-multx="1" data-multy="1" stroke="none" patternTransform="matrix(1,0,0,1,0,0)" data-transs="0" data-transf="0" data-source="Pattern 6" data-draw="1" fill="#B3B3B3" fill-opacity="1"><path transform="matrix(1,0,0,1,0,0)" d="M3 0 L7 0 L7 10 L3 10 L3 0 Z"></path></pattern><pattern id="pattern7" patternUnits="userSpaceOnUse" x="0" y="0" width="10" height="10" data-x="0" data-y="0" data-width="10" data-height="10" data-multx="1" data-multy="1" stroke="none" patternTransform="matrix(1,0,0,1,0,0)" data-transs="0" data-transf="0" data-source="Pattern 7" data-draw="1" fill="#B3B3B3" fill-opacity="1"><path transform="matrix(1,0,0,1,0,0)" d="M10 3 L10 7 L0 7 L0 3 L10 3 Z"></path></pattern><pattern id="pattern8" patternUnits="userSpaceOnUse" x="0" y="0" width="10" height="10" data-x="0" data-y="0" data-width="10" data-height="10" data-multx="1" data-multy="1" stroke="none" patternTransform="matrix(1,0,0,1,0,0)" data-transs="0" data-transf="0" data-source="Pattern 8" data-draw="1" fill="#B3B3B3" fill-opacity="1"><path transform="matrix(1,0,0,1,0,0)" d="M0 10 L3 3 L10 0 L7 7 L0 10 Z"></path></pattern><pattern id="pattern9" patternUnits="userSpaceOnUse" x="0" y="0" width="10" height="10" data-x="0" data-y="0" data-width="10" data-height="10" data-multx="1" data-multy="1" stroke="none" patternTransform="matrix(1,0,0,1,0,0)" data-transs="0" data-transf="0" data-source="Pattern 9" data-draw="1" fill="#B3B3B3" fill-opacity="1"><path transform="matrix(1,0,0,1,0,0)" d="M0 4 L10 4 L10 6 L0 6 L0 4 Z M4 10 L4 0 L6 0 L6 10 L4 10 Z"></path></pattern><linearGradient id="linearSystem" gradientUnits="objectBoundingBox" x1="0%" y1="50%" x2="100%" y2="50%" spreadMethod="pad"><stop offset="50%" stop-color="#D0D0D0" stop-opacity="1"></stop><stop offset="100%" stop-color="transparent" stop-opacity="1"></stop></linearGradient><linearGradient id="linearSystem1" gradientUnits="objectBoundingBox" x1="0%" y1="50%" x2="100%" y2="50%" spreadMethod="pad"><stop offset="30%" stop-color="#D0D0D0" stop-opacity="1"></stop><stop offset="100%" stop-color="transparent" stop-opacity="1"></stop></linearGradient><linearGradient id="linearSystem2" gradientUnits="objectBoundingBox" x1="0%" y1="50%" x2="50%" y2="50%" spreadMethod="repeat"><stop offset="30%" stop-color="#D0D0D0" stop-opacity="1"></stop><stop offset="100%" stop-color="transparent" stop-opacity="1"></stop></linearGradient><linearGradient id="linearSystem3" gradientUnits="objectBoundingBox" x1="0%" y1="50%" x2="50%" y2="50%" spreadMethod="reflect"><stop offset="30%" stop-color="#D0D0D0" stop-opacity="1"></stop><stop offset="100%" stop-color="transparent" stop-opacity="1"></stop></linearGradient><radialGradient id="radialSystem" gradientUnits="objectBoundingBox" r="0.5" cx="0.5" fx="0.5" cy="0.5" fy="0.5" spreadMethod="pad"><stop offset="50%" stop-color="#D0D0D0" stop-opacity="1"></stop><stop offset="100%" stop-color="transparent" stop-opacity="1"></stop></radialGradient><pattern id="patternSystem" patternUnits="userSpaceOnUse" x="0" y="0" width="6" height="8"><path stroke="#D0D0D0" stroke-width="5" fill="none" d="M0 0 L0 10"></path></pattern><linearGradient id="linear0" gradientUnits="objectBoundingBox" x1="0%" y1="50%" x2="100%" y2="50%" spreadMethod="pad"><stop offset="0%" stop-color="#FF8000" stop-opacity="1"></stop><stop offset="100%" stop-color="#FFFF00" stop-opacity="1"></stop></linearGradient><linearGradient id="linear1" gradientUnits="objectBoundingBox" x1="0%" y1="50%" x2="100%" y2="50%" spreadMethod="pad"><stop offset="0%" stop-color="#FFFF00" stop-opacity="1"></stop><stop offset="100%" stop-color="#FF8000" stop-opacity="1"></stop></linearGradient><linearGradient id="linearImport" gradientUnits="objectBoundingBox" x1="0%" y1="50%" x2="100%" y2="50%" spreadMethod="pad"><stop offset="0%" stop-color="#FFFFFF" stop-opacity="0.1"></stop><stop offset="100%" stop-color="#000000" stop-opacity="0.1"></stop></linearGradient><radialGradient id="radial0" gradientUnits="objectBoundingBox" r="0.5" cx="0.5" fx="0.5" cy="0.5" fy="0.5" spreadMethod="pad"><stop offset="0%" stop-color="#FF8000" stop-opacity="1"></stop><stop offset="100%" stop-color="#FFFF00" stop-opacity="1"></stop></radialGradient><radialGradient id="radial1" gradientUnits="objectBoundingBox" r="0.5" cx="0.5" fx="0.5" cy="0.5" fy="0.5" spreadMethod="pad"><stop offset="0%" stop-color="#FFFF00" stop-opacity="1"></stop><stop offset="100%" stop-color="#FF8000" stop-opacity="1"></stop></radialGradient><radialGradient id="radialImport" gradientUnits="objectBoundingBox" r="0.5" cx="0.5" fx="0.5" cy="0.5" fy="0.5" spreadMethod="pad"><stop offset="0%" stop-color="#FFFFFF" stop-opacity="0.1"></stop><stop offset="100%" stop-color="#000000" stop-opacity="0.1"></stop></radialGradient><linearGradient id="linear2" gradientUnits="objectBoundingBox" x1="0.03%" y1="51.59%" x2="100%" y2="50%" spreadMethod="pad"><stop offset="0%" stop-color="#CCCCCC" stop-opacity="1"></stop><stop offset="100%" stop-color="#999999" stop-opacity="1"></stop></linearGradient><linearGradient id="linear3" gradientUnits="objectBoundingBox" x1="19.17%" y1="45%" x2="81.67%" y2="49.17%" spreadMethod="pad"><stop offset="0%" stop-color="#333333" stop-opacity="1"></stop><stop offset="100%" stop-color="#E6E6E6" stop-opacity="1"></stop></linearGradient></defs><rect id="pageExport" x="0" y="0" width="380" height="120" fill="none" fill-opacity="0" stroke="none" stroke-width="0"></rect><g id="objectsExport" visibility="visible"><g id="group239" visibility="visible" stroke="#ffca82" stroke-width="0" stroke-opacity="1" stroke-dasharray="none" fill="none" fill-opacity="1" data-name="group" data-title="group" deg="0" data-edit="1" data-centerx="56.5" data-centery="62.5"><g id="group235" visibility="visible" stroke="#ffca82" stroke-width="NaN" stroke-opacity="1" stroke-dasharray="none" fill="none" fill-opacity="1" data-name="group" data-title="group" deg="0" data-edit="1" data-centerx="78.5" data-centery="68.5"><path id="path133" visibility="visible" stroke="#000000" stroke-width="5" stroke-opacity="1" stroke-linecap="round" stroke-linejoin="round" stroke-dasharray="none" marker-start="none" marker-end="none" fill="#FFFFFF" fill-rule="evenodd" fill-opacity="1" data-name="curve" data-title="curve" deg="0" data-sw="5" data-grad="0" data-group="group239" data-edit="1" filter="none" d="M2 33 L111 33 L111 110 L2 110 L2 33 Z " data-centerx="142.44" data-centery="31.395"></path><g id="group234" visibility="visible" stroke="#ffca82" stroke-width="0" stroke-opacity="1" stroke-dasharray="none" fill="none" fill-opacity="1" data-name="group" data-title="group" deg="0" data-edit="1" data-centerx="143" data-centery="49.5" data-group="group239"><g id="group214" visibility="visible" stroke="#ffca82" stroke-width="0" stroke-opacity="1" stroke-dasharray="none" fill="none" fill-opacity="1" data-name="group" data-title="group" deg="0" data-edit="1" data-centerx="144" data-centery="108.5" data-group="group239"><path id="path168" visibility="visible" stroke="#ffca82" stroke-width="0" stroke-opacity="1" stroke-linecap="round" stroke-linejoin="round" stroke-dasharray="none" marker-start="none" marker-end="none" fill="#FF8040" fill-rule="evenodd" fill-opacity="1" data-name="curve" data-title="curve" deg="0" data-sw="0" data-grad="0" data-group="group239" data-edit="1" filter="none" d="M6.888 57.8 C6.888 55.332 8.977 53.312 11.531 53.312 C14.085 53.312 16.175 55.332 16.175 57.8 C16.175 60.269 14.085 62.288 11.531 62.288 C8.977 62.288 6.888 60.269 6.888 57.8 Z " data-centerx="119.466" data-centery="54.541"></path><path id="path169" visibility="visible" stroke="#ffca82" stroke-width="0" stroke-opacity="1" stroke-linecap="round" stroke-linejoin="round" stroke-dasharray="none" marker-start="none" marker-end="none" fill="#CCCCCC" fill-rule="evenodd" fill-opacity="1" data-name="curve" data-title="curve" deg="0" data-sw="0" data-grad="0" data-group="group239" data-edit="1" filter="none" d="M22.04 57.8 C22.04 55.332 24.13 53.312 26.684 53.312 C29.237 53.312 31.327 55.332 31.327 57.8 C31.327 60.269 29.237 62.288 26.684 62.288 C24.13 62.288 22.04 60.269 22.04 57.8 Z " data-centerx="134.62" data-centery="54.541"></path><path id="path170" visibility="visible" stroke="#ffca82" stroke-width="0" stroke-opacity="1" stroke-linecap="round" stroke-linejoin="round" stroke-dasharray="none" marker-start="none" marker-end="none" fill="#CCCCCC" fill-rule="evenodd" fill-opacity="1" data-name="curve" data-title="curve" deg="0" data-sw="0" data-grad="0" data-group="group239" data-edit="1" filter="none" d="M36.704 57.8 C36.704 55.332 38.794 53.312 41.348 53.312 C43.901 53.312 45.991 55.332 45.991 57.8 C45.991 60.269 43.901 62.288 41.348 62.288 C38.794 62.288 36.704 60.269 36.704 57.8 Z " data-centerx="149.283" data-centery="54.541"></path><path id="path171" visibility="visible" stroke="#ffca82" stroke-width="0" stroke-opacity="1" stroke-linecap="round" stroke-linejoin="round" stroke-dasharray="none" marker-start="none" marker-end="none" fill="#CCCCCC" fill-rule="evenodd" fill-opacity="1" data-name="curve" data-title="curve" deg="0" data-sw="0" data-grad="0" data-group="group239" data-edit="1" filter="none" d="M51.368 57.8 C51.368 55.332 53.457 53.312 56.012 53.312 C58.565 53.312 60.655 55.332 60.655 57.8 C60.655 60.269 58.565 62.288 56.012 62.288 C53.457 62.288 51.368 60.269 51.368 57.8 Z " data-centerx="163.947" data-centery="54.541"></path><path id="path172" visibility="visible" stroke="#ffca82" stroke-width="0" stroke-opacity="1" stroke-linecap="round" stroke-linejoin="round" stroke-dasharray="none" marker-start="none" marker-end="none" fill="#CCCCCC" fill-rule="evenodd" fill-opacity="1" data-name="curve" data-title="curve" deg="0" data-sw="0" data-grad="0" data-group="group239" data-edit="1" filter="none" d="M66.031 57.8 C66.031 55.332 68.121 53.312 70.675 53.312 C73.228 53.312 75.318 55.332 75.318 57.8 C75.318 60.269 73.228 62.288 70.675 62.288 C68.121 62.288 66.031 60.269 66.031 57.8 Z " data-centerx="178.61" data-centery="54.541"></path><path id="path173" visibility="visible" stroke="#ffca82" stroke-width="0" stroke-opacity="1" stroke-linecap="round" stroke-linejoin="round" stroke-dasharray="none" marker-start="none" marker-end="none" fill="#CCCCCC" fill-rule="evenodd" fill-opacity="1" data-name="curve" data-title="curve" deg="0" data-sw="0" data-grad="0" data-group="group239" data-edit="1" filter="none" d="M80.206 57.8 C80.206 55.332 82.296 53.312 84.849 53.312 C87.404 53.312 89.493 55.332 89.493 57.8 C89.493 60.269 87.404 62.288 84.849 62.288 C82.296 62.288 80.206 60.269 80.206 57.8 Z " data-centerx="192.786" data-centery="54.541"></path><path id="path174" visibility="visible" stroke="#ffca82" stroke-width="0" stroke-opacity="1" stroke-linecap="round" stroke-linejoin="round" stroke-dasharray="none" marker-start="none" marker-end="none" fill="#0080FF" fill-rule="evenodd" fill-opacity="1" data-name="curve" data-title="curve" deg="0" data-sw="0" data-grad="0" data-group="group239" data-edit="1" filter="none" d="M95.358 57.8 C95.358 55.332 97.448 53.312 100.003 53.312 C102.556 53.312 104.646 55.332 104.646 57.8 C104.646 60.269 102.556 62.288 100.003 62.288 C97.448 62.288 95.358 60.269 95.358 57.8 Z " data-centerx="207.938" data-centery="54.541"></path></g><g id="group215" visibility="visible" stroke="#ffca82" stroke-width="0" stroke-opacity="1" stroke-dasharray="none" fill="none" fill-opacity="1" data-name="group" data-title="group" deg="0" data-edit="1" data-centerx="144" data-centery="138.5" data-group="group239"><path id="path176" visibility="visible" stroke="#ffca82" stroke-width="0" stroke-opacity="1" stroke-linecap="round" stroke-linejoin="round" stroke-dasharray="none" marker-start="none" marker-end="none" fill="#FF8040" fill-rule="evenodd" fill-opacity="1" data-name="curve" data-title="curve" deg="0" data-sw="0" data-grad="0" data-group="group239" data-edit="1" filter="none" d="M6.888 71.973 C6.888 69.504 8.977 67.484 11.531 67.484 C14.085 67.484 16.175 69.504 16.175 71.973 C16.175 74.441 14.085 76.461 11.531 76.461 C8.977 76.461 6.888 74.441 6.888 71.973 Z " data-centerx="119.466" data-centery="54.541"></path><path id="path177" visibility="visible" stroke="#ffca82" stroke-width="0" stroke-opacity="1" stroke-linecap="round" stroke-linejoin="round" stroke-dasharray="none" marker-start="none" marker-end="none" fill="#CCCCCC" fill-rule="evenodd" fill-opacity="1" data-name="curve" data-title="curve" deg="0" data-sw="0" data-grad="0" data-group="group239" data-edit="1" filter="none" d="M22.04 71.973 C22.04 69.504 24.13 67.484 26.684 67.484 C29.237 67.484 31.327 69.504 31.327 71.973 C31.327 74.441 29.237 76.461 26.684 76.461 C24.13 76.461 22.04 74.441 22.04 71.973 Z " data-centerx="134.62" data-centery="54.541"></path><path id="path178" visibility="visible" stroke="#ffca82" stroke-width="0" stroke-opacity="1" stroke-linecap="round" stroke-linejoin="round" stroke-dasharray="none" marker-start="none" marker-end="none" fill="#CCCCCC" fill-rule="evenodd" fill-opacity="1" data-name="curve" data-title="curve" deg="0" data-sw="0" data-grad="0" data-group="group239" data-edit="1" filter="none" d="M36.704 71.973 C36.704 69.504 38.794 67.484 41.348 67.484 C43.901 67.484 45.991 69.504 45.991 71.973 C45.991 74.441 43.901 76.461 41.348 76.461 C38.794 76.461 36.704 74.441 36.704 71.973 Z " data-centerx="149.283" data-centery="54.541"></path><path id="path179" visibility="visible" stroke="#ffca82" stroke-width="0" stroke-opacity="1" stroke-linecap="round" stroke-linejoin="round" stroke-dasharray="none" marker-start="none" marker-end="none" fill="#CCCCCC" fill-rule="evenodd" fill-opacity="1" data-name="curve" data-title="curve" deg="0" data-sw="0" data-grad="0" data-group="group239" data-edit="1" filter="none" d="M51.368 71.973 C51.368 69.504 53.457 67.484 56.012 67.484 C58.565 67.484 60.655 69.504 60.655 71.973 C60.655 74.441 58.565 76.461 56.012 76.461 C53.457 76.461 51.368 74.441 51.368 71.973 Z " data-centerx="163.947" data-centery="54.541"></path><path id="path180" visibility="visible" stroke="#ffca82" stroke-width="0" stroke-opacity="1" stroke-linecap="round" stroke-linejoin="round" stroke-dasharray="none" marker-start="none" marker-end="none" fill="#CCCCCC" fill-rule="evenodd" fill-opacity="1" data-name="curve" data-title="curve" deg="0" data-sw="0" data-grad="0" data-group="group239" data-edit="1" filter="none" d="M66.031 71.973 C66.031 69.504 68.121 67.484 70.675 67.484 C73.228 67.484 75.318 69.504 75.318 71.973 C75.318 74.441 73.228 76.461 70.675 76.461 C68.121 76.461 66.031 74.441 66.031 71.973 Z " data-centerx="178.61" data-centery="54.541"></path><path id="path181" visibility="visible" stroke="#ffca82" stroke-width="0" stroke-opacity="1" stroke-linecap="round" stroke-linejoin="round" stroke-dasharray="none" marker-start="none" marker-end="none" fill="#CCCCCC" fill-rule="evenodd" fill-opacity="1" data-name="curve" data-title="curve" deg="0" data-sw="0" data-grad="0" data-group="group239" data-edit="1" filter="none" d="M80.206 71.973 C80.206 69.504 82.296 67.484 84.849 67.484 C87.404 67.484 89.493 69.504 89.493 71.973 C89.493 74.441 87.404 76.461 84.849 76.461 C82.296 76.461 80.206 74.441 80.206 71.973 Z " data-centerx="192.786" data-centery="54.541"></path><path id="path182" visibility="visible" stroke="#ffca82" stroke-width="0" stroke-opacity="1" stroke-linecap="round" stroke-linejoin="round" stroke-dasharray="none" marker-start="none" marker-end="none" fill="#0080FF" fill-rule="evenodd" fill-opacity="1" data-name="curve" data-title="curve" deg="0" data-sw="0" data-grad="0" data-group="group239" data-edit="1" filter="none" d="M95.358 71.973 C95.358 69.504 97.448 67.484 100.003 67.484 C102.556 67.484 104.646 69.504 104.646 71.973 C104.646 74.441 102.556 76.461 100.003 76.461 C97.448 76.461 95.358 74.441 95.358 71.973 Z " data-centerx="207.938" data-centery="54.541"></path></g><path id="path217" visibility="visible" stroke="#ffca82" stroke-width="0" stroke-opacity="1" stroke-linecap="round" stroke-linejoin="round" stroke-dasharray="none" marker-start="none" marker-end="none" fill="#CCCCCC" fill-rule="evenodd" fill-opacity="1" data-name="curve" data-title="curve" deg="0" data-sw="0" data-grad="0" data-group="group239" data-edit="1" filter="none" d="M22.04 43.629 C22.04 41.161 24.13 39.141 26.684 39.141 C29.237 39.141 31.327 41.161 31.327 43.629 C31.327 46.097 29.237 48.117 26.684 48.117 C24.13 48.117 22.04 46.097 22.04 43.629 Z " data-centerx="113.113" data-centery="45.566"></path><path id="path218" visibility="visible" stroke="#ffca82" stroke-width="0" stroke-opacity="1" stroke-linecap="round" stroke-linejoin="round" stroke-dasharray="none" marker-start="none" marker-end="none" fill="#CCCCCC" fill-rule="evenodd" fill-opacity="1" data-name="curve" data-title="curve" deg="0" data-sw="0" data-grad="0" data-group="group239" data-edit="1" filter="none" d="M36.704 43.629 C36.704 41.161 38.794 39.141 41.348 39.141 C43.901 39.141 45.991 41.161 45.991 43.629 C45.991 46.097 43.901 48.117 41.348 48.117 C38.794 48.117 36.704 46.097 36.704 43.629 Z " data-centerx="127.777" data-centery="45.566"></path><path id="path219" visibility="visible" stroke="#ffca82" stroke-width="0" stroke-opacity="1" stroke-linecap="round" stroke-linejoin="round" stroke-dasharray="none" marker-start="none" marker-end="none" fill="#CCCCCC" fill-rule="evenodd" fill-opacity="1" data-name="curve" data-title="curve" deg="0" data-sw="0" data-grad="0" data-group="group239" data-edit="1" filter="none" d="M51.368 43.629 C51.368 41.161 53.457 39.141 56.012 39.141 C58.565 39.141 60.655 41.161 60.655 43.629 C60.655 46.097 58.565 48.117 56.012 48.117 C53.457 48.117 51.368 46.097 51.368 43.629 Z " data-centerx="142.44" data-centery="45.566"></path><path id="path220" visibility="visible" stroke="#ffca82" stroke-width="0" stroke-opacity="1" stroke-linecap="round" stroke-linejoin="round" stroke-dasharray="none" marker-start="none" marker-end="none" fill="#CCCCCC" fill-rule="evenodd" fill-opacity="1" data-name="curve" data-title="curve" deg="0" data-sw="0" data-grad="0" data-group="group239" data-edit="1" filter="none" d="M66.031 43.629 C66.031 41.161 68.121 39.141 70.675 39.141 C73.228 39.141 75.318 41.161 75.318 43.629 C75.318 46.097 73.228 48.117 70.675 48.117 C68.121 48.117 66.031 46.097 66.031 43.629 Z " data-centerx="157.104" data-centery="45.566"></path><path id="path221" visibility="visible" stroke="#ffca82" stroke-width="0" stroke-opacity="1" stroke-linecap="round" stroke-linejoin="round" stroke-dasharray="none" marker-start="none" marker-end="none" fill="#CCCCCC" fill-rule="evenodd" fill-opacity="1" data-name="curve" data-title="curve" deg="0" data-sw="0" data-grad="0" data-group="group239" data-edit="1" filter="none" d="M80.206 43.629 C80.206 41.161 82.296 39.141 84.849 39.141 C87.404 39.141 89.493 41.161 89.493 43.629 C89.493 46.097 87.404 48.117 84.849 48.117 C82.296 48.117 80.206 46.097 80.206 43.629 Z " data-centerx="171.278" data-centery="45.566"></path><path id="path222" visibility="visible" stroke="#ffca82" stroke-width="0" stroke-opacity="1" stroke-linecap="round" stroke-linejoin="round" stroke-dasharray="none" marker-start="none" marker-end="none" fill="#0080FF" fill-rule="evenodd" fill-opacity="1" data-name="curve" data-title="curve" deg="0" data-sw="0" data-grad="0" data-group="group239" data-edit="1" filter="none" d="M95.358 43.629 C95.358 41.161 97.448 39.141 100.003 39.141 C102.556 39.141 104.646 41.161 104.646 43.629 C104.646 46.097 102.556 48.117 100.003 48.117 C97.448 48.117 95.358 46.097 95.358 43.629 Z " data-centerx="186.431" data-centery="45.566"></path><path id="path223" visibility="visible" stroke="#ffca82" stroke-width="0" stroke-opacity="1" stroke-linecap="round" stroke-linejoin="round" stroke-dasharray="none" marker-start="none" marker-end="none" fill="#FF8040" fill-rule="evenodd" fill-opacity="1" data-name="curve" data-title="curve" deg="0" data-sw="0" data-grad="0" data-group="group239" data-edit="1" filter="none" d="M6.888 100.316 C6.888 97.848 8.977 95.828 11.531 95.828 C14.085 95.828 16.175 97.848 16.175 100.316 C16.175 102.784 14.085 104.803 11.531 104.803 C8.977 104.803 6.888 102.784 6.888 100.316 Z " data-centerx="97.96" data-centery="102.254"></path><path id="path224" visibility="visible" stroke="#ffca82" stroke-width="0" stroke-opacity="1" stroke-linecap="round" stroke-linejoin="round" stroke-dasharray="none" marker-start="none" marker-end="none" fill="#CCCCCC" fill-rule="evenodd" fill-opacity="1" data-name="curve" data-title="curve" deg="0" data-sw="0" data-grad="0" data-group="group239" data-edit="1" filter="none" d="M22.04 100.316 C22.04 97.848 24.13 95.828 26.684 95.828 C29.237 95.828 31.327 97.848 31.327 100.316 C31.327 102.784 29.237 104.803 26.684 104.803 C24.13 104.803 22.04 102.784 22.04 100.316 Z " data-centerx="113.113" data-centery="102.254"></path><path id="path225" visibility="visible" stroke="#ffca82" stroke-width="0" stroke-opacity="1" stroke-linecap="round" stroke-linejoin="round" stroke-dasharray="none" marker-start="none" marker-end="none" fill="#CCCCCC" fill-rule="evenodd" fill-opacity="1" data-name="curve" data-title="curve" deg="0" data-sw="0" data-grad="0" data-group="group239" data-edit="1" filter="none" d="M36.704 100.316 C36.704 97.848 38.794 95.828 41.348 95.828 C43.901 95.828 45.991 97.848 45.991 100.316 C45.991 102.784 43.901 104.803 41.348 104.803 C38.794 104.803 36.704 102.784 36.704 100.316 Z " data-centerx="127.777" data-centery="102.254"></path><path id="path226" visibility="visible" stroke="#ffca82" stroke-width="0" stroke-opacity="1" stroke-linecap="round" stroke-linejoin="round" stroke-dasharray="none" marker-start="none" marker-end="none" fill="#CCCCCC" fill-rule="evenodd" fill-opacity="1" data-name="curve" data-title="curve" deg="0" data-sw="0" data-grad="0" data-group="group239" data-edit="1" filter="none" d="M51.368 100.316 C51.368 97.848 53.457 95.828 56.012 95.828 C58.565 95.828 60.655 97.848 60.655 100.316 C60.655 102.784 58.565 104.803 56.012 104.803 C53.457 104.803 51.368 102.784 51.368 100.316 Z " data-centerx="142.44" data-centery="102.254"></path><path id="path227" visibility="visible" stroke="#ffca82" stroke-width="0" stroke-opacity="1" stroke-linecap="round" stroke-linejoin="round" stroke-dasharray="none" marker-start="none" marker-end="none" fill="#FF8040" fill-rule="evenodd" fill-opacity="1" data-name="curve" data-title="curve" deg="0" data-sw="0" data-grad="0" data-group="group239" data-edit="1" filter="none" d="M6.888 86.145 C6.888 83.677 8.977 81.657 11.531 81.657 C14.085 81.657 16.175 83.677 16.175 86.145 C16.175 88.613 14.085 90.633 11.531 90.633 C8.977 90.633 6.888 88.613 6.888 86.145 Z " data-centerx="97.96" data-centery="88.081"></path><path id="path228" visibility="visible" stroke="#ffca82" stroke-width="0" stroke-opacity="1" stroke-linecap="round" stroke-linejoin="round" stroke-dasharray="none" marker-start="none" marker-end="none" fill="#FF8040" fill-rule="evenodd" fill-opacity="1" data-name="curve" data-title="curve" deg="0" data-sw="0" data-grad="0" data-group="group239" data-edit="1" filter="none" d="M22.04 86.145 C22.04 83.677 24.13 81.657 26.684 81.657 C29.237 81.657 31.327 83.677 31.327 86.145 C31.327 88.613 29.237 90.633 26.684 90.633 C24.13 90.633 22.04 88.613 22.04 86.145 Z " data-centerx="113.113" data-centery="88.081"></path><path id="path229" visibility="visible" stroke="#ffca82" stroke-width="0" stroke-opacity="1" stroke-linecap="round" stroke-linejoin="round" stroke-dasharray="none" marker-start="none" marker-end="none" fill="#CCCCCC" fill-rule="evenodd" fill-opacity="1" data-name="curve" data-title="curve" deg="0" data-sw="0" data-grad="0" data-group="group239" data-edit="1" filter="none" d="M36.704 86.145 C36.704 83.677 38.794 81.657 41.348 81.657 C43.901 81.657 45.991 83.677 45.991 86.145 C45.991 88.613 43.901 90.633 41.348 90.633 C38.794 90.633 36.704 88.613 36.704 86.145 Z " data-centerx="127.777" data-centery="88.081"></path><path id="path230" visibility="visible" stroke="#ffca82" stroke-width="0" stroke-opacity="1" stroke-linecap="round" stroke-linejoin="round" stroke-dasharray="none" marker-start="none" marker-end="none" fill="#CCCCCC" fill-rule="evenodd" fill-opacity="1" data-name="curve" data-title="curve" deg="0" data-sw="0" data-grad="0" data-group="group239" data-edit="1" filter="none" d="M51.368 86.145 C51.368 83.677 53.457 81.657 56.012 81.657 C58.565 81.657 60.655 83.677 60.655 86.145 C60.655 88.613 58.565 90.633 56.012 90.633 C53.457 90.633 51.368 88.613 51.368 86.145 Z " data-centerx="142.44" data-centery="88.081"></path><path id="path231" visibility="visible" stroke="#ffca82" stroke-width="0" stroke-opacity="1" stroke-linecap="round" stroke-linejoin="round" stroke-dasharray="none" marker-start="none" marker-end="none" fill="#CCCCCC" fill-rule="evenodd" fill-opacity="1" data-name="curve" data-title="curve" deg="0" data-sw="0" data-grad="0" data-group="group239" data-edit="1" filter="none" d="M66.031 86.145 C66.031 83.677 68.121 81.657 70.675 81.657 C73.228 81.657 75.318 83.677 75.318 86.145 C75.318 88.613 73.228 90.633 70.675 90.633 C68.121 90.633 66.031 88.613 66.031 86.145 Z " data-centerx="157.104" data-centery="88.081"></path><path id="path232" visibility="visible" stroke="#ffca82" stroke-width="0" stroke-opacity="1" stroke-linecap="round" stroke-linejoin="round" stroke-dasharray="none" marker-start="none" marker-end="none" fill="#CCCCCC" fill-rule="evenodd" fill-opacity="1" data-name="curve" data-title="curve" deg="0" data-sw="0" data-grad="0" data-group="group239" data-edit="1" filter="none" d="M80.206 86.145 C80.206 83.677 82.296 81.657 84.849 81.657 C87.404 81.657 89.493 83.677 89.493 86.145 C89.493 88.613 87.404 90.633 84.849 90.633 C82.296 90.633 80.206 88.613 80.206 86.145 Z " data-centerx="171.278" data-centery="88.081"></path><path id="path233" visibility="visible" stroke="#ffca82" stroke-width="0" stroke-opacity="1" stroke-linecap="round" stroke-linejoin="round" stroke-dasharray="none" marker-start="none" marker-end="none" fill="#0080FF" fill-rule="evenodd" fill-opacity="1" data-name="curve" data-title="curve" deg="0" data-sw="0" data-grad="0" data-group="group239" data-edit="1" filter="none" d="M95.358 86.145 C95.358 83.677 97.448 81.657 100.003 81.657 C102.556 81.657 104.646 83.677 104.646 86.145 C104.646 88.613 102.556 90.633 100.003 90.633 C97.448 90.633 95.358 88.613 95.358 86.145 Z " data-centerx="186.431" data-centery="88.081"></path></g></g><path id="path238" visibility="visible" stroke="#000000" stroke-width="5" stroke-opacity="1" stroke-linecap="round" stroke-linejoin="round" stroke-dasharray="none" marker-start="none" marker-end="none" fill="#999999" fill-rule="evenodd" fill-opacity="1" data-name="curve" data-title="curve" deg="0" data-sw="5" data-grad="0" data-group="group239" data-edit="1" filter="none" d="M2 15 L111 15 L111 33 L2 33 L2 15 Z " data-centerx="78.5" data-centery="21"></path></g><g id="group240" visibility="visible" stroke="#ffca82" stroke-width="NaN" stroke-opacity="1" stroke-dasharray="none" fill="none" fill-opacity="1" data-name="group" data-title="text" deg="0" data-edit="1" data-centerx="272.159" data-centery="57.593"><text id="text241" visibility="visible" font-family="Times New Roman" font-size="18" font-weight="normal" font-style="normal" transform="matrix(2.697,0,0,4.37,-1748.279,-1402.544)" stroke="none" stroke-width="0" stroke-opacity="1" stroke-dasharray="none" fill="#B3B3B3" fill-opacity="1" data-name="text" data-title="text" deg="0" data-sw="0" data-group="group240" data-trans="translate(-510,-280) matrix(2.697,0,0,4.37,-1238.279,-1122.544)" data-edit="1" filter="none" x="691" y="341" data-centerx="304.864" data-centery="72.573">SilverWorker</text></g></g><g id="settings" visibility="hidden" data-dn0="primalDraw" data-dn1="#FFFFFF" data-dn2="#D2D2D2" data-dn3="18" data-dn4="#ffca82" data-dn5="#B3B3B3" data-dn6="1" data-dn7="1" data-dn8="0" data-dn9="round" data-dn10="round" data-dn11="none" data-dn12="none" data-dn13="none" data-dn14="evenodd" data-dn15="10" data-dn16="1" data-dn17="380" data-dn18="120" data-dn19="10" data-dn20="0" data-dn21="1" data-dn22="1" data-dn23="242" data-dn24="group239,group240" data-dn25="4" data-dn26="url(#linear0)" data-dn27="url(#linear1)" data-dn28="url(#radial0)" data-dn29="url(#radial1)" data-dn30="#FF8000" data-dn31="#FFFF00" data-dn32="#000000" data-dn33="1" data-dn34="1" data-dn35="10" data-dn36="" data-dn37="0" data-dn38="108"></g></svg>